<svg
  width="512"
  height="130"
  viewBox="0 0 512 130"
  fill="none"
  xmlns="http://www.w3.org/2000/svg"
>
  <path
    d="M37.5402 110.86C40.9272 110.55 42.1973 110.271 41.3506 110.023C40.5038 109.775 38.387 109.527 35 109.279L40.0805 109L70.5632 109.651H228.057C250.073 109.651 283.519 109.744 328.397 109.93C373.274 110.116 407.144 110.209 430.006 110.209C441.013 110.209 454.561 110.178 470.649 110.116L477 110.581H465.569C467.262 110.767 470.226 110.922 474.46 111.047L477 111.233L443.977 111.512L438.897 112.163L446.517 112.814C434.663 113.062 424.925 113.186 417.305 113.186H388.092L372.851 113.558C365.23 113.558 354.646 113.713 341.098 114.023L343.638 114.302C349.565 114.116 355.069 114.023 360.149 114.023C364.383 114.023 370.31 114.147 377.931 114.395C373.697 114.457 371.58 114.612 371.58 114.86C369.04 114.922 363.536 114.953 355.069 114.953L315.695 115.14L300.454 115.419L271.241 115.233L258.54 115.419L169.632 115.605L126.448 116.163C118.828 116.225 112.9 116.504 108.667 117C84.9579 115.946 72.2567 115.295 70.5632 115.047L59.1322 112.07C58.2854 111.822 51.0881 111.419 37.5402 110.86Z"
    fill="#282C33"
  />
  <path
    d="M66.0312 82.5H54.1562L46.5625 69.9062C45 67.3021 43.7188 65.625 42.7188 64.875C41.7188 64.125 40.6562 63.75 39.5312 63.75H36.4062V82.5H26.0938V34.0938H43.0625C54.5833 34.0938 60.3438 38.4688 60.3438 47.2188C60.3438 50.5104 59.375 53.3333 57.4375 55.6875C55.5208 58.0417 52.875 59.6979 49.5 60.6562V60.7812C51.7292 61.5312 54.1979 63.9896 56.9062 68.1562L66.0312 82.5ZM36.4062 41.9375V55.875H41.4688C43.8854 55.875 45.8229 55.1771 47.2812 53.7812C48.7604 52.3646 49.5 50.6042 49.5 48.5C49.5 44.125 46.8854 41.9375 41.6562 41.9375H36.4062ZM100.469 68.0625H77.7188C78.0729 73.4167 81.3021 76.0938 87.4062 76.0938C91.2188 76.0938 94.5833 75.1562 97.5 73.2812V80.6875C94.3542 82.4583 90.2292 83.3438 85.125 83.3438C79.625 83.3438 75.3438 81.7917 72.2812 78.6875C69.2396 75.5833 67.7188 71.2604 67.7188 65.7188C67.7188 60.1979 69.3438 55.7188 72.5938 52.2812C75.8438 48.8229 79.9271 47.0938 84.8438 47.0938C89.7396 47.0938 93.5625 48.5833 96.3125 51.5625C99.0833 54.5208 100.469 58.5938 100.469 63.7812V68.0625ZM91.0625 61.75C91.0625 56.5833 88.9688 54 84.7812 54C83.0521 54 81.5208 54.7083 80.1875 56.125C78.8542 57.5417 78.0208 59.4167 77.6875 61.75H91.0625ZM107.875 50.0312C109.438 49.1562 111.521 48.4479 114.125 47.9062C116.75 47.3646 118.99 47.0938 120.844 47.0938C130.51 47.0938 135.344 51.9375 135.344 61.625V82.5H125.75V77.4688H125.625C123.271 81.3854 119.823 83.3438 115.281 83.3438C112.01 83.3438 109.385 82.4167 107.406 80.5625C105.448 78.6875 104.469 76.1458 104.469 72.9375C104.469 66.3125 108.417 62.4583 116.312 61.375L125.812 60.0938C125.812 56.0729 123.719 54.0625 119.531 54.0625C115.406 54.0625 111.521 55.3125 107.875 57.8125V50.0312ZM119.281 66.8438C115.635 67.3229 113.812 68.9688 113.812 71.7812C113.812 73.0729 114.25 74.1146 115.125 74.9062C116.021 75.6979 117.219 76.0938 118.719 76.0938C120.781 76.0938 122.479 75.3646 123.812 73.9062C125.146 72.4479 125.812 70.6354 125.812 68.4688V66L119.281 66.8438ZM169.938 81.2188C167.521 82.6354 164.083 83.3438 159.625 83.3438C154.354 83.3438 150.094 81.7396 146.844 78.5312C143.594 75.3229 141.969 71.1667 141.969 66.0625C141.969 60.1875 143.719 55.5625 147.219 52.1875C150.719 48.7917 155.385 47.0938 161.219 47.0938C165.156 47.0938 168.073 47.6354 169.969 48.7188V57.375C167.656 55.6875 165.135 54.8438 162.406 54.8438C159.323 54.8438 156.844 55.7812 154.969 57.6562C153.115 59.5312 152.188 62.1042 152.188 65.375C152.188 68.5417 153.073 71.0417 154.844 72.875C156.615 74.6875 159.021 75.5938 162.062 75.5938C164.75 75.5938 167.375 74.7396 169.938 73.0312V81.2188ZM197.438 82.0938C195.917 82.9271 193.615 83.3438 190.531 83.3438C183.198 83.3438 179.531 79.4896 179.531 71.7812V55.4688H173.844V47.9375H179.531V40.3438L189.562 37.4688V47.9375H197.438V55.4688H189.562V70.0312C189.562 73.7188 191.021 75.5625 193.938 75.5625C195.062 75.5625 196.229 75.2292 197.438 74.5625V82.0938Z"
    fill="#76D8F8"
  />
  <path
    d="M288.364 73.228C288.321 73.2707 288.151 73.3133 287.852 73.356L287.788 73.484C287.873 74.0387 287.724 74.4013 287.34 74.572C286.743 74.828 286.423 74.9773 286.38 75.02C285.953 75.6173 285.505 76.108 285.036 76.492C284.14 77.132 282.796 77.7933 281.004 78.476L280.94 78.54C280.94 78.54 280.961 78.7533 281.004 79.18V79.244C280.236 79.4147 279.767 79.5427 279.596 79.628C279.212 79.884 278.849 80.1613 278.508 80.46C277.996 80.588 277.313 80.8227 276.46 81.164C276.247 81.292 275.991 81.4413 275.692 81.612C275.521 81.5693 275.287 81.548 274.988 81.548C274.945 81.7187 274.86 81.9107 274.732 82.124C274.476 82.3373 273.985 82.4653 273.26 82.508C272.535 82.5933 272.044 82.7 271.788 82.828C271.575 82.956 271.255 83.148 270.828 83.404C270.572 83.3613 270.231 83.3613 269.804 83.404C269.761 83.4467 269.719 83.5533 269.676 83.724L269.548 83.788C269.292 83.66 269.015 83.596 268.716 83.596C268.289 83.596 267.649 83.7453 266.796 84.044C265.943 84.3853 265.324 84.5133 264.94 84.428C264.855 84.3 264.705 84.172 264.492 84.044C264.407 84.044 264.129 84.1933 263.66 84.492C263.233 84.8333 262.892 84.9827 262.636 84.94L262.444 84.812V84.62L262.508 84.492C262.636 84.492 262.828 84.492 263.084 84.492L263.212 84.364L263.148 84.236L263.02 84.108C262.38 84.108 261.207 84.428 259.5 85.068C259.073 85.1107 258.433 85.2387 257.58 85.452C257.196 85.708 256.748 85.964 256.236 86.22C256.151 86.1773 255.98 86.028 255.724 85.772C255.511 85.5587 255.34 85.452 255.212 85.452C255.041 85.452 254.871 85.5587 254.7 85.772C254.401 86.0707 254.252 86.22 254.252 86.22C252.759 86.1773 249.815 86.6893 245.42 87.756C244.78 87.7987 243.841 87.9267 242.604 88.14C238.807 89.2067 236.865 89.74 236.78 89.74C236.695 89.6973 236.652 89.6333 236.652 89.548C236.823 89.164 237.612 88.7373 239.02 88.268C240.001 88.012 240.961 87.7347 241.9 87.436L242.028 87.308L241.964 86.796L242.028 86.668C242.113 86.7107 242.22 86.7747 242.348 86.86C242.476 86.988 242.583 87.052 242.668 87.052C243.095 87.052 243.628 86.86 244.268 86.476C244.951 86.092 245.399 85.708 245.612 85.324C245.825 85.324 246.145 85.3027 246.572 85.26C246.657 85.26 247.233 85.068 248.3 84.684C248.513 84.4707 248.897 84.1933 249.452 83.852H249.516C249.772 83.8947 250.156 83.8947 250.668 83.852L250.732 83.724L250.796 83.276L250.86 83.212C251.201 83.2547 251.628 83.2547 252.14 83.212L262.764 78.988C263.319 78.5613 264.215 77.964 265.452 77.196C267.073 76.3853 268.716 75.596 270.38 74.828C272.215 73.8893 273.772 72.9507 275.052 72.012C276.801 70.6893 277.676 69.8573 277.676 69.516C277.676 69.1747 277.377 68.9827 276.78 68.94C276.353 68.9827 275.927 69.004 275.5 69.004C275.159 68.9187 274.647 68.7907 273.964 68.62C273.068 68.5773 271.745 68.5347 269.996 68.492C268.716 68.492 266.839 68.428 264.364 68.3C262.359 68.1293 261.569 68.044 261.996 68.044C261.527 68.044 260.737 68.1293 259.628 68.3C258.561 68.428 257.729 68.4707 257.132 68.428C254.487 68.3 252.993 68.2573 252.652 68.3C252.311 68.3 251.841 68.2573 251.244 68.172C250.647 68.044 250.22 67.98 249.964 67.98C249.409 67.98 248.897 68.108 248.428 68.364H248.364L248.236 68.172C248.065 68.2147 247.831 68.2147 247.532 68.172C247.319 68.0867 246.999 67.98 246.572 67.852C245.548 67.8947 244.033 67.8733 242.028 67.788C237.761 67.2333 235.223 66.828 234.412 66.572C234.156 66.444 233.708 66.252 233.068 65.996C232.897 65.74 232.663 65.42 232.364 65.036C231.937 64.8653 231.383 64.4813 230.7 63.884L227.948 59.788C227.692 59.3613 227.415 58.4227 227.116 56.972C226.775 55.4787 226.604 54.1987 226.604 53.132C226.604 52.5347 226.668 52.0867 226.796 51.788C226.967 51.788 227.223 51.7453 227.564 51.66C227.521 51.404 227.543 51.1053 227.628 50.764L227.948 50.636C228.033 50.4653 228.033 50.188 227.948 49.804C227.863 49.42 227.841 49.1853 227.884 49.1C227.927 49.0573 227.969 49.036 228.012 49.036C228.055 49.036 228.161 49.1 228.332 49.228C228.503 49.3133 228.609 49.356 228.652 49.356C228.652 49.356 228.737 49.0787 228.908 48.524C228.951 48.4387 229.036 48.2893 229.164 48.076C229.42 47.2227 229.889 46.1347 230.572 44.812L230.764 44.748L230.892 44.876C230.892 44.748 230.828 45.0893 230.7 45.9L230.764 46.028H230.956C231.383 45.4733 231.745 45.0467 232.044 44.748C232.172 44.876 232.513 44.94 233.068 44.94C233.409 44.2147 233.857 43.2973 234.412 42.188C234.711 41.8893 235.116 41.3987 235.628 40.716C235.841 40.2893 236.183 39.692 236.652 38.924C236.908 38.7107 237.249 38.3693 237.676 37.9C237.676 37.6867 237.761 37.388 237.932 37.004C238.145 36.9613 238.444 36.8973 238.828 36.812C238.871 36.7267 238.935 36.62 239.02 36.492C239.105 36.3213 239.212 36.172 239.34 36.044C239.425 35.916 239.34 35.7453 239.084 35.532V35.404C239.553 35.0627 240.257 34.5507 241.196 33.868V33.74C241.068 33.612 240.94 33.3133 240.812 32.844C240.94 32.7587 241.132 32.6307 241.388 32.46C242.497 31.308 245.271 29.6867 249.708 27.596C249.964 27.5107 250.369 27.3613 250.924 27.148C251.052 27.02 251.265 26.8493 251.564 26.636L268.268 19.404C268.78 18.9773 269.335 18.5293 269.932 18.06C270.06 18.06 270.551 18.124 271.404 18.252C272.897 18.5507 273.943 18.9773 274.54 19.532C274.881 19.8307 275.585 20.8333 276.652 22.54C277.761 24.2467 278.401 25.292 278.572 25.676C279.169 26.9987 279.596 28.1933 279.852 29.26C280.321 31.2227 280.556 33.0573 280.556 34.764C280.556 35.8307 280.407 36.5133 280.108 36.812C279.809 37.068 279.511 37.196 279.212 37.196C278.785 37.196 278.295 36.94 277.74 36.428C277.313 36.044 276.887 35.66 276.46 35.276C275.351 34.5507 274.369 34.0813 273.516 33.868C272.663 33.6547 271.788 33.548 270.892 33.548C269.057 33.548 266.049 34.4653 261.868 36.3L259.372 37.388C256.129 38.796 253.463 40.1613 251.372 41.484C251.073 41.7827 250.625 42.1453 250.028 42.572C249.815 42.6147 249.516 42.7213 249.132 42.892C248.961 43.1053 248.684 43.3827 248.3 43.724C248.001 43.724 247.532 43.852 246.892 44.108C246.593 44.4493 246.103 44.94 245.42 45.58C245.079 45.58 244.503 45.7933 243.692 46.22C243.436 46.5613 243.073 47.0307 242.604 47.628C241.452 48.6947 240.321 49.7613 239.212 50.828C237.591 52.5347 236.78 53.9213 236.78 54.988C236.78 55.4573 236.951 55.884 237.292 56.268C237.932 56.9507 240.023 57.5693 243.564 58.124C246.167 58.5507 248.449 58.8067 250.412 58.892L268.076 59.788C272.257 60.0013 276.225 60.7907 279.98 62.156C284.887 63.948 287.852 66.3373 288.876 69.324C289.089 69.964 289.196 70.412 289.196 70.668C289.196 70.796 289.111 70.988 288.94 71.244C288.769 71.5 288.663 71.7987 288.62 72.14C288.577 72.4387 288.492 72.8013 288.364 73.228ZM246.892 68.492L246.764 68.62C246.465 68.7053 246.273 68.7053 246.188 68.62C246.06 68.5773 246.039 68.5133 246.124 68.428C246.337 68.172 246.551 68.0867 246.764 68.172L246.892 68.364V68.492ZM274.732 32.908C274.817 32.8227 274.881 32.6947 274.924 32.524L274.796 32.396L274.668 32.268C274.497 32.3107 274.369 32.3747 274.284 32.46V32.588C274.327 32.7587 274.412 32.8653 274.54 32.908H274.732ZM244.78 32.652L244.908 32.588V32.396L244.78 32.332C244.652 32.2467 244.503 32.2253 244.332 32.268L244.268 32.396L244.332 32.588C244.503 32.716 244.652 32.7373 244.78 32.652ZM270.508 28.556L270.7 28.62C270.999 28.5347 271.148 28.4067 271.148 28.236C271.148 28.108 271.063 28.0013 270.892 27.916C270.679 27.8733 270.529 27.9587 270.444 28.172C270.401 28.3 270.423 28.428 270.508 28.556ZM329.016 81.1C328.973 81.228 328.845 81.3773 328.632 81.548C328.12 81.676 327.352 81.868 326.328 82.124C325.261 82.508 324.408 82.764 323.768 82.892C323.597 82.9347 323.363 82.9987 323.064 83.084C321.955 83.1267 320.803 83.2333 319.608 83.404V83.468V83.596C319.651 83.6387 320.888 83.5533 323.32 83.34C324.643 83.212 326.413 82.7853 328.632 82.06C330.253 81.5053 331.064 81.292 331.064 81.42C329.912 81.9747 327.821 82.6787 324.792 83.532C324.664 83.532 324.451 83.532 324.152 83.532C323.768 83.66 323.149 83.8093 322.296 83.98C321.869 83.8947 321.08 83.8733 319.928 83.916L319.864 84.044L319.928 84.108L320.376 84.172C320.419 84.2147 320.419 84.2573 320.376 84.3C320.376 84.3427 320.355 84.364 320.312 84.364C319.544 84.364 319.139 84.364 319.096 84.364C319.096 84.236 319.032 84.108 318.904 83.98C319.117 83.98 318.883 84.108 318.2 84.364C317.901 84.4493 317.283 84.5133 316.344 84.556C315.533 84.5987 314.147 84.4493 312.184 84.108C310.221 83.7667 308.813 83.4253 307.96 83.084C307.491 82.9133 307 82.7 306.488 82.444V82.38L306.552 82.252C307.277 82.5933 308.173 82.892 309.24 83.148L309.304 83.084V82.956C308.707 82.4867 307.789 82.06 306.552 81.676L306.232 81.74C305.933 81.5267 305.549 81.2707 305.08 80.972C304.952 80.9293 304.739 80.8653 304.44 80.78C304.355 80.652 304.163 80.5027 303.864 80.332C303.565 80.1613 303.224 79.9693 302.84 79.756C302.456 79.5853 302.243 79.3507 302.2 79.052C301.944 78.9667 301.56 78.8173 301.048 78.604C300.877 78.348 300.579 78.0067 300.152 77.58C300.067 77.58 299.917 77.58 299.704 77.58C299.576 77.4093 299.363 77.1747 299.064 76.876C297.784 75.5533 296.547 73.8893 295.352 71.884C294.157 69.836 293.368 67.9587 292.984 66.252C292.899 65.6973 292.728 64.9933 292.472 64.14C292.429 64.14 291.832 64.0547 290.68 63.884C289.869 63.7987 289.08 64.268 288.312 65.292C287.501 66.316 287.075 66.828 287.032 66.828H285.56C285.261 66.828 284.941 66.1667 284.6 64.844C284.472 64.588 284.301 64.1827 284.088 63.628C284.003 63.5853 283.917 63.5213 283.832 63.436C283.704 63.308 283.64 63.1587 283.64 62.988C283.64 62.86 283.661 62.6467 283.704 62.348C283.704 62.092 283.704 61.8787 283.704 61.708C283.704 61.58 283.661 61.3667 283.576 61.068C283.491 60.7693 283.469 60.5347 283.512 60.364C283.512 60.108 283.576 59.6813 283.704 59.084C283.789 58.4867 283.832 58.0173 283.832 57.676C283.789 57.4627 283.661 57.1427 283.448 56.716C283.192 56.2893 283.107 55.948 283.192 55.692C283.32 54.9667 283.427 54.604 283.512 54.604C283.555 54.604 283.619 54.6253 283.704 54.668C284.771 55.564 286.029 56.1613 287.48 56.46C288.888 56.7587 290.317 57.036 291.768 57.292C291.939 57.3347 292.045 57.2493 292.088 57.036L292.536 49.612C292.536 49.3133 292.493 48.908 292.408 48.396C292.323 47.884 292.28 47.5427 292.28 47.372C292.323 46.7747 292.344 45.8573 292.344 44.62C292.301 44.4493 292.237 44.0227 292.152 43.34C292.067 42.7853 292.024 42.3373 292.024 41.996C292.024 41.868 292.045 41.74 292.088 41.612L292.216 41.548C292.173 41.548 292.365 41.6333 292.792 41.804C293.005 41.804 293.283 41.8467 293.624 41.932C293.837 42.1453 294.179 42.5293 294.648 43.084C294.733 43.2973 294.84 43.6387 294.968 44.108C295.352 45.1747 295.843 46.3053 296.44 47.5C296.653 47.7987 296.888 48.2467 297.144 48.844C297.528 50.0813 297.613 50.892 297.4 51.276C297.272 51.6173 297.059 52.0867 296.76 52.684C296.589 52.812 296.355 53.0467 296.056 53.388C295.8 53.7293 295.672 54.3907 295.672 55.372C295.672 56.396 295.8 57.036 296.056 57.292C296.099 57.3773 296.376 57.42 296.888 57.42C296.888 57.42 296.952 57.548 297.08 57.804C297.165 57.8893 297.336 57.932 297.592 57.932L297.656 57.868V57.74L297.336 57.548V57.484V57.356L297.4 57.292C297.656 57.3347 297.955 57.3773 298.296 57.42L298.36 57.548V57.868V57.932H298.488L323.32 58.7C323.533 58.7 324.045 58.828 324.856 59.084C324.856 59.1693 324.899 59.276 324.984 59.404C325.112 59.4467 325.219 59.4467 325.304 59.404C325.304 59.3187 325.325 59.212 325.368 59.084C325.453 58.9133 325.539 58.892 325.624 59.02C325.667 59.0627 325.688 59.1907 325.688 59.404C325.944 59.4893 326.136 59.532 326.264 59.532L327.864 59.66C327.907 59.6173 327.907 59.5533 327.864 59.468C327.352 59.4253 326.776 59.3613 326.136 59.276C326.093 59.2333 326.093 59.1693 326.136 59.084C326.221 58.9987 326.819 58.9987 327.928 59.084C329.037 59.1693 329.741 59.276 330.04 59.404V59.532V59.788C330.253 59.8307 330.573 59.8733 331 59.916L331.064 59.98C331.064 60.1507 331.043 60.236 331 60.236C330.957 60.2787 328.803 60.1507 324.536 59.852C324.323 59.9373 324.024 60.0013 323.64 60.044C323.128 59.9587 322.339 59.852 321.272 59.724C320.717 59.724 319.864 59.6813 318.712 59.596C318.541 59.6387 318.285 59.6813 317.944 59.724C316.493 59.6387 315.747 59.596 315.704 59.596L315.64 59.724L315.704 59.852C315.747 59.852 316.941 59.8947 319.288 59.98C319.331 59.98 319.565 60.1507 319.992 60.492V60.556C319.992 60.6413 319.971 60.684 319.928 60.684C311.693 60.4707 307.491 60.428 307.32 60.556C307.149 60.8547 307.107 61.0253 307.192 61.068C307.448 61.1533 308.195 61.132 309.432 61.004C310.584 60.876 311.245 60.8973 311.416 61.068C311.416 61.1533 311.395 61.26 311.352 61.388C310.755 61.3453 309.965 61.4307 308.984 61.644C308.984 61.7293 308.963 61.8787 308.92 62.092C308.877 62.1347 308.792 62.156 308.664 62.156H308.536C308.493 62.1133 308.429 62.0493 308.344 61.964C308.429 61.7933 308.472 61.6867 308.472 61.644C308.387 61.516 308.195 61.4307 307.896 61.388C307.768 61.4307 307.704 61.5587 307.704 61.772C307.747 61.7293 307.832 61.7293 307.96 61.772L308.024 61.836L307.96 61.964C307.32 62.0067 306.488 62.0493 305.464 62.092C304.44 62.1347 303.523 62.1987 302.712 62.284C302.541 62.3267 302.157 62.412 301.56 62.54C301.005 62.668 300.579 62.732 300.28 62.732C298.915 62.732 298.467 62.7107 298.936 62.668C298.296 62.7107 298.04 62.9453 298.168 63.372L298.232 63.436C298.659 63.3933 299.149 63.3933 299.704 63.436L299.768 63.564V63.692L299.64 63.756L298.36 63.82C298.061 63.692 297.571 63.6067 296.888 63.564C296.632 63.6493 296.739 64.2893 297.208 65.484L297.976 67.404C298.744 69.4093 299.469 70.988 300.152 72.14C300.621 72.908 301.581 74.2307 303.032 76.108C304.312 77.516 305.741 78.7107 307.32 79.692C308.131 80.204 309.347 80.8227 310.968 81.548C312.333 81.932 314.509 82.124 317.496 82.124C318.819 82.124 321.784 81.7187 326.392 80.908C326.989 80.8227 327.651 80.6307 328.376 80.332C329.101 80.076 329.848 79.9053 330.616 79.82C330.872 79.8627 331.149 79.884 331.448 79.884C330.979 80.268 330.637 80.524 330.424 80.652C329.997 80.908 329.528 81.0573 329.016 81.1ZM316.536 84.236V84.108V84.044C315.768 84.044 314.637 83.916 313.144 83.66L313.016 83.724V83.852L313.144 83.916C315.149 84.3 316.28 84.4067 316.536 84.236ZM312.568 83.916L312.632 83.852V83.724L312.568 83.596H312.44H312.312V83.788L312.376 83.916H312.568ZM318.456 83.724L318.52 83.596H318.456C318.371 83.5107 318.285 83.468 318.2 83.468C317.944 83.3827 317.773 83.3827 317.688 83.468C317.603 83.5533 317.645 83.6387 317.816 83.724C317.944 83.8093 318.157 83.8093 318.456 83.724ZM311.928 83.724L311.992 83.66V83.596C311.693 83.5107 311.352 83.4253 310.968 83.34L310.904 83.404V83.532C311.331 83.788 311.672 83.852 311.928 83.724ZM314.68 83.66L314.808 83.596V83.404C314.637 83.276 314.424 83.2547 314.168 83.34C313.869 83.3827 313.805 83.4467 313.976 83.532C314.147 83.6173 314.381 83.66 314.68 83.66ZM306.104 82.124L305.976 82.188C305.891 82.1453 305.848 82.0813 305.848 81.996L305.976 81.932L306.104 81.996V82.124ZM305.08 81.612L305.016 81.676L304.824 81.74L304.696 81.612V81.484L304.888 81.356L304.952 81.42C305.037 81.4627 305.08 81.5267 305.08 81.612ZM303.352 80.396L303.288 80.46C303.245 80.5453 303.181 80.588 303.096 80.588C303.053 80.5453 302.861 80.3747 302.52 80.076C302.947 80.1187 303.224 80.2253 303.352 80.396ZM300.984 63.628C300.813 63.756 300.579 63.7773 300.28 63.692C300.237 63.6493 300.216 63.6067 300.216 63.564C300.216 63.5213 300.323 63.4787 300.536 63.436C300.749 63.3933 300.899 63.3933 300.984 63.436V63.5V63.628ZM311.544 61.9C311.544 61.8573 311.715 61.836 312.056 61.836C312.397 61.836 312.589 61.8573 312.632 61.9V62.028V62.156C312.589 62.1987 312.397 62.22 312.056 62.22C311.715 62.22 311.544 62.1987 311.544 62.156C311.501 62.0707 311.501 61.9853 311.544 61.9ZM314.552 61.9C314.595 61.9 314.787 61.8787 315.128 61.836C315.469 61.7933 315.661 61.7933 315.704 61.836L315.768 61.964V62.092C315.725 62.092 315.512 62.1133 315.128 62.156C314.787 62.156 314.595 62.156 314.552 62.156C314.509 62.0707 314.509 61.9853 314.552 61.9ZM310.584 62.028C310.499 62.1133 310.413 62.156 310.328 62.156L310.2 62.092V61.964L310.328 61.836H310.52L310.584 61.9V62.028ZM309.496 62.156H309.432L309.304 62.028C309.304 61.8573 309.389 61.7507 309.56 61.708C309.603 61.7507 309.667 61.7933 309.752 61.836C309.752 61.964 309.667 62.0707 309.496 62.156ZM319.736 61.452C319.693 61.4947 318.968 61.5373 317.56 61.58C317.859 61.58 317.197 61.58 315.576 61.58C315.107 61.58 314.893 61.4307 314.936 61.132C314.979 61.0893 315.576 61.0893 316.728 61.132C317.667 61.132 318.669 61.1533 319.736 61.196L319.8 61.324L319.736 61.452ZM314.616 61.068C314.701 61.324 314.275 61.452 313.336 61.452C312.44 61.4947 311.928 61.452 311.8 61.324L311.736 61.196L311.8 61.068C311.843 61.0253 312.312 60.9827 313.208 60.94C314.104 60.94 314.573 60.9827 314.616 61.068ZM306.36 61.644L306.424 61.58L306.36 61.388L306.232 61.324H306.104L306.04 61.452V61.58L306.168 61.644H306.36ZM291.704 61.58H291.768C291.896 61.5373 291.96 61.4733 291.96 61.388C291.917 61.2173 291.853 61.1107 291.768 61.068C291.683 61.1107 291.619 61.196 291.576 61.324C291.576 61.4093 291.619 61.4947 291.704 61.58ZM322.552 61.26V61.452L322.424 61.516H322.36L322.232 61.452V61.324V61.196H322.424L322.552 61.26ZM321.272 61.324V61.452C321.187 61.5373 321.08 61.6013 320.952 61.644C320.867 61.6013 320.781 61.5373 320.696 61.452L320.76 61.324C320.845 61.196 320.931 61.132 321.016 61.132C321.101 61.132 321.187 61.196 321.272 61.324ZM323.064 60.876L323 60.748L323.064 60.684L323.128 60.62H326.072C326.371 60.62 326.52 60.7053 326.52 60.876C326.52 61.0893 326.371 61.1747 326.072 61.132C325.091 61.0893 324.088 61.004 323.064 60.876ZM322.552 60.876C322.552 60.876 322.509 60.876 322.424 60.876L320.76 60.748C320.717 60.6627 320.717 60.5987 320.76 60.556C321.357 60.556 321.955 60.5773 322.552 60.62L322.616 60.748L322.552 60.876ZM320.952 60.108L321.08 60.172V60.3C320.995 60.3853 320.909 60.428 320.824 60.428L320.696 60.3V60.172C320.781 60.1293 320.867 60.108 320.952 60.108ZM315.064 60.044C315.021 60.1293 315.021 60.1933 315.064 60.236C315.064 60.2787 316.216 60.3213 318.52 60.364C318.605 60.3213 318.605 60.3 318.52 60.3L315.128 60.044H315.064ZM314.296 60.364C314.424 60.3213 314.509 60.236 314.552 60.108L314.488 59.98L314.424 59.916C314.253 59.9587 314.168 60.044 314.168 60.172V60.3L314.296 60.364ZM329.272 59.916L329.4 59.852L329.464 59.724C329.421 59.596 329.336 59.5107 329.208 59.468H329.144L329.016 59.532V59.724L329.08 59.852L329.272 59.916ZM323.32 59.34C323.363 59.3827 323.448 59.4253 323.576 59.468L323.704 59.404V59.276L323.64 59.212L323.512 59.084L323.384 59.212L323.32 59.34ZM322.424 59.084C322.424 59.084 321.997 59.084 321.144 59.084C321.059 59.084 321.016 59.1053 321.016 59.148C321.016 59.2333 321.059 59.276 321.144 59.276H322.36C322.531 59.276 322.552 59.212 322.424 59.084ZM338.877 53.452C338.962 53.452 339.218 53.5373 339.645 53.708C340.114 53.8787 340.434 53.964 340.605 53.964C340.69 54.0067 341.095 53.7933 341.821 53.324C342.034 53.1533 342.226 53.068 342.397 53.068C342.61 53.1107 342.951 53.1533 343.421 53.196C343.506 53.196 343.634 53.1747 343.805 53.132C343.975 53.0467 344.125 53.004 344.253 53.004H344.317C344.914 53.0893 345.554 53.4947 346.237 54.22C346.749 54.8173 347.261 55.4147 347.773 56.012C348.114 56.3107 348.306 56.716 348.349 57.228C348.391 57.484 348.327 57.7613 348.157 58.06C348.029 58.316 347.965 58.4653 347.965 58.508C347.965 58.7213 348.093 58.828 348.349 58.828C348.434 58.828 348.605 58.7853 348.861 58.7C349.117 58.6147 349.33 58.572 349.501 58.572C350.141 58.572 350.61 58.956 350.909 59.724C350.866 60.1507 350.93 60.8547 351.101 61.836C351.143 62.0067 351.335 62.2413 351.677 62.54C352.018 62.796 352.189 63.0733 352.189 63.372C352.189 64.012 352.018 64.8227 351.677 65.804C351.378 66.7853 351.207 67.468 351.165 67.852C351.122 68.1507 351.143 68.8333 351.229 69.9C351.357 70.9667 351.485 71.6493 351.613 71.948C351.869 72.7587 352.082 73.3133 352.253 73.612C352.423 73.9107 352.743 74.316 353.213 74.828C354.066 75.468 355.09 76.236 356.285 77.132C356.455 77.3027 356.541 77.452 356.541 77.58C356.541 77.6227 356.519 77.6867 356.477 77.772C356.434 77.8573 356.413 77.9427 356.413 78.028C356.413 78.3693 356.818 78.8813 357.629 79.564C356.562 79.564 354.791 79.18 352.317 78.412C350.738 77.9 349.223 77.1107 347.773 76.044C346.365 74.9347 345.469 73.804 345.085 72.652C345.042 72.6093 344.999 71.2867 344.957 68.684C344.914 67.7453 344.807 67.1907 344.637 67.02C344.509 66.9773 344.445 67.2547 344.445 67.852C344.317 68.2787 344.125 68.812 343.869 69.452C343.613 69.8787 343.293 70.54 342.909 71.436C342.61 71.9907 342.29 72.6307 341.949 73.356C341.437 74.124 340.882 74.9773 340.285 75.916C339.986 76.5133 339.41 77.3027 338.557 78.284C338.087 78.4547 337.447 78.7747 336.637 79.244C336.509 79.4147 336.274 79.6707 335.933 80.012C335.293 80.652 334.567 81.1427 333.757 81.484C333.373 81.6547 332.349 81.612 330.684 81.356C330.215 81.3133 329.511 81.2067 328.572 81.036C326.567 80.4813 325.714 78.8387 326.012 76.108C326.098 75.9373 326.226 75.7027 326.396 75.404C326.354 75.148 326.375 74.828 326.46 74.444C326.716 74.188 327.015 74.1667 327.356 74.38C327.399 74.4653 327.42 74.5933 327.42 74.764C327.42 74.9773 327.356 75.4893 327.228 76.3C327.1 77.1107 327.036 77.7293 327.036 78.156C327.036 78.6253 327.1 79.0093 327.228 79.308C327.399 79.436 327.57 79.4573 327.74 79.372L327.932 79.18C327.932 79.18 327.932 78.476 327.932 77.068C327.932 76.3 327.996 75.5533 328.124 74.828C328.167 74.6573 328.274 74.2947 328.444 73.74C328.615 73.1853 328.701 72.8227 328.701 72.652V72.588C328.658 72.5453 328.487 72.6307 328.188 72.844C327.89 73.0573 327.698 73.2067 327.612 73.292C327.527 73.3347 327.484 73.484 327.484 73.74L327.42 73.868C327.207 73.8253 327.015 73.7827 326.844 73.74V73.548C326.844 73.2493 326.951 72.9933 327.164 72.78C327.292 72.8227 327.442 72.8013 327.612 72.716C327.612 72.3747 327.804 71.9267 328.188 71.372H328.38C328.508 71.1587 328.7 70.86 328.956 70.476C329.127 70.4333 329.362 70.3053 329.66 70.092C329.703 69.836 329.596 69.6227 329.34 69.452C329.298 69.1107 329.596 68.8547 330.236 68.684C330.834 68.4707 331.154 68.3427 331.197 68.3C331.154 68.428 331.09 68.1507 331.005 67.468C331.047 67.34 332.882 65.1427 336.509 60.876C337.149 60.108 337.853 58.316 338.621 55.5C338.749 55.244 338.877 54.8813 339.005 54.412C338.962 54.1987 338.919 53.8787 338.877 53.452ZM329.98 79.628L330.108 79.5L330.044 79.18L329.788 79.052L329.532 79.116L329.404 79.308L329.468 79.564L329.724 79.692L329.98 79.628ZM334.205 72.524H334.013L333.949 72.268C334.119 72.0547 334.247 71.8627 334.333 71.692V71.564L334.205 71.5C333.991 71.5427 333.714 71.6067 333.373 71.692C333.245 71.7773 333.01 72.076 332.669 72.588C332.327 73.0573 332.178 73.356 332.221 73.484C332.263 73.612 332.37 73.6973 332.541 73.74C332.882 73.74 333.095 73.5267 333.181 73.1L333.565 72.844L333.821 72.908L333.949 73.1C333.949 73.228 333.885 73.3987 333.757 73.612C333.373 74.124 332.925 74.3587 332.413 74.316C331.901 74.2733 331.623 74.2947 331.581 74.38L331.645 74.636C331.858 74.7213 332.093 74.828 332.349 74.956L332.413 75.148L332.285 75.276C332.071 75.276 331.879 75.212 331.709 75.084L331.581 75.148C331.41 75.4893 331.346 75.724 331.389 75.852L331.453 75.98C331.879 75.98 332.135 76.0867 332.221 76.3C332.306 76.5987 332.285 76.8333 332.157 77.004C332.029 77.132 331.965 77.26 331.965 77.388C332.093 77.516 332.221 77.7293 332.349 78.028C332.306 78.1987 332.263 78.3907 332.221 78.604L332.349 78.796L332.669 78.924C333.01 78.8387 333.458 78.7107 334.013 78.54C334.141 78.412 334.354 78.2413 334.653 78.028C335.293 77.772 336.103 77.2813 337.085 76.556L341.693 70.476C342.759 68.9827 343.207 68.0013 343.037 67.532C342.781 67.4893 342.269 67.7027 341.501 68.172C340.989 68.5133 340.498 68.8333 340.029 69.132C339.858 69.132 339.666 69.068 339.453 68.94C339.239 68.812 339.069 68.748 338.941 68.748C338.77 68.748 338.578 68.8547 338.365 69.068C337.255 70.092 335.869 71.244 334.205 72.524ZM328.956 78.668C329.084 78.7533 329.191 78.796 329.276 78.796C329.532 78.796 329.703 78.4333 329.788 77.708C329.831 77.2387 329.874 76.7693 329.916 76.3C330.258 75.4467 330.749 74.1453 331.389 72.396C331.431 72.2253 331.431 72.1187 331.389 72.076H331.325C329.447 73.1853 328.551 74.9773 328.636 77.452C328.679 78.1347 328.786 78.54 328.956 78.668ZM338.173 70.732L337.981 70.604V70.412C338.109 70.0707 338.493 69.772 339.133 69.516C339.218 69.5587 339.282 69.6653 339.325 69.836C338.941 70.3907 338.557 70.6893 338.173 70.732ZM354.689 70.924C354.945 70.156 355.223 69.516 355.521 69.004C356.033 68.1933 356.396 67.532 356.609 67.02L358.145 64.204C358.231 63.8627 358.444 63.372 358.785 62.732L357.953 61.9C357.697 61.388 357.591 60.8547 357.633 60.3L358.401 59.66C358.956 59.4893 359.596 59.2333 360.322 58.892C360.45 58.636 360.578 58.4013 360.706 58.188C360.834 57.932 361.111 57.7613 361.538 57.676C362.562 57.676 363.308 57.7827 363.778 57.996C363.991 58.0813 364.567 58.4653 365.506 59.148C365.42 59.5747 365.527 60.1507 365.826 60.876C365.954 60.9613 367.042 61.1747 369.09 61.516C370.882 61.8147 371.842 62.1133 371.97 62.412C373.036 63.3507 373.57 64.0973 373.57 64.652C373.57 64.8227 373.548 65.0147 373.506 65.228C372.994 66.0387 372.162 67.5107 371.01 69.644L369.282 72.908L368.77 74.892C368.983 75.404 369.346 75.5747 369.858 75.404C371.01 75.1907 371.927 74.8067 372.61 74.252L373.826 73.356C374.338 72.9293 374.935 72.268 375.618 71.372L376.898 69.58L379.01 66.188C379.052 66.188 379.074 66.252 379.074 66.38C379.074 67.1053 378.69 68.1933 377.922 69.644L377.218 70.86C377.132 71.244 376.855 71.7987 376.385 72.524L375.81 73.548C375.682 73.676 375.426 73.996 375.042 74.508L374.402 75.212L373.378 76.236L370.818 78.22C370.604 78.348 370.114 78.6467 369.345 79.116C368.023 79.884 366.999 80.3533 366.274 80.524C365.164 80.524 364.311 80.3107 363.714 79.884C362.946 79.372 362.391 78.6893 362.049 77.836C361.708 76.9827 361.708 75.7453 362.049 74.124C362.178 74.124 362.37 73.9533 362.626 73.612C362.668 73.228 362.754 72.8013 362.882 72.332C362.924 72.204 363.052 72.0973 363.266 72.012C363.522 71.9267 363.692 71.7987 363.778 71.628C363.607 71.6707 363.479 71.6493 363.394 71.564C363.522 71.2227 363.65 70.9453 363.778 70.732C363.778 70.6467 364.439 69.5373 365.762 67.404C366.359 66.38 366.722 65.3773 366.85 64.396C366.508 63.628 365.74 63.0947 364.546 62.796C363.948 62.6253 363.33 62.6893 362.69 62.988C361.068 63.9693 359.745 65.2067 358.721 66.7L357.505 68.62L356.673 69.644C356.033 70.4547 355.372 70.8813 354.689 70.924ZM363.138 73.228C362.796 74.4653 362.775 75.1267 363.074 75.212C363.244 75.2547 363.564 74.8067 364.034 73.868C364.418 73.1427 364.61 72.6733 364.61 72.46C364.61 72.4173 364.354 72.332 363.842 72.204C363.586 72.1187 363.351 72.46 363.138 73.228ZM364.61 69.26C364.226 70.1133 364.204 70.7533 364.546 71.18C364.674 71.3507 364.78 71.436 364.866 71.436C365.036 71.436 365.186 71.0307 365.314 70.22C365.484 69.3667 365.634 68.8547 365.762 68.684C365.89 68.4707 365.954 68.3427 365.954 68.3C365.954 68.2573 365.932 68.236 365.89 68.236C365.847 68.236 365.719 68.2787 365.506 68.364C365.335 68.4493 365.228 68.492 365.186 68.492C365.1 68.492 365.079 68.4707 365.122 68.428C364.823 68.8973 364.652 69.1747 364.61 69.26ZM362.242 75.66C362.242 75.8307 362.327 76.0227 362.498 76.236C362.711 76.4493 362.86 76.556 362.946 76.556C363.031 76.556 363.074 76.2573 363.074 75.66C363.074 75.2333 362.882 75.02 362.498 75.02C362.327 75.02 362.242 75.2333 362.242 75.66ZM400.156 76.236L400.22 76.3C400.39 76.4707 400.433 76.62 400.348 76.748C400.262 76.7907 399.089 77.2813 396.828 78.22C395.932 78.5613 394.716 78.732 393.18 78.732C390.108 78.732 388.038 78.3053 386.972 77.452C386.673 77.2387 386.289 76.7053 385.82 75.852C385.35 74.9987 385.116 74.572 385.116 74.572C384.945 74.188 384.604 73.5907 384.092 72.78C383.964 72.6093 383.878 72.5453 383.836 72.588C383.836 72.588 383.814 72.8013 383.772 73.228C383.729 73.4413 383.686 73.8893 383.644 74.572C383.644 76.492 383.665 77.388 383.708 77.26C383.452 78.412 383.089 80.14 382.62 82.444C382.193 84.7907 381.873 87.4787 381.66 90.508C381.66 91.4467 381.596 92.428 381.468 93.452L381.404 93.516C381.105 93.4733 380.998 93.0253 381.084 92.172L382.044 83.084C382.044 83.084 382.022 83.0413 381.98 82.956L381.852 82.892L381.724 82.956C381.724 82.956 381.702 82.9773 381.66 83.02L381.276 85.068C381.276 85.2387 381.276 85.516 381.276 85.9C381.233 86.4547 381.126 87.2227 380.956 88.204C380.87 88.4173 380.785 88.716 380.7 89.1C380.742 89.4413 380.764 89.9747 380.764 90.7C380.764 90.9987 380.721 91.532 380.636 92.3C380.55 93.068 380.508 93.644 380.508 94.028C380.508 94.156 380.529 94.348 380.572 94.604C380.657 94.9027 380.7 95.1373 380.7 95.308C380.657 95.7347 380.508 95.948 380.252 95.948C380.038 95.948 379.953 95.4787 379.995 94.54C380.123 89.804 380.188 87.4147 380.188 87.372L379.995 87.308L379.867 87.372C379.825 87.4147 379.697 88.524 379.483 90.7C379.398 91.1693 379.27 91.8733 379.099 92.812C379.014 93.8787 379.035 96.4813 379.163 100.62C379.334 105.057 379.526 107.575 379.739 108.172L379.867 108.236C379.995 108.236 380.166 107.383 380.38 105.676C380.38 105.463 380.294 104.609 380.123 103.116C380.081 102.775 380.038 101.687 379.995 99.852C379.953 97.9747 379.953 96.9293 379.995 96.716C380.209 96.3747 380.422 96.3747 380.636 96.716C380.678 96.844 380.7 97.228 380.7 97.868C380.7 98.2093 380.678 98.8493 380.636 99.788C380.593 100.556 380.593 101.175 380.636 101.644C380.636 101.857 380.678 102.241 380.764 102.796C380.849 103.351 380.87 103.756 380.828 104.012C380.785 104.268 380.742 104.631 380.7 105.1V105.228L380.828 105.164C380.828 105.889 380.849 106.743 380.892 107.724C380.764 107.895 380.7 107.98 380.7 107.98C380.785 108.023 380.892 108.087 381.02 108.172C381.02 108.257 381.041 108.407 381.084 108.62L381.148 108.748L381.276 108.684L381.34 108.62C381.297 108.023 381.276 107.233 381.276 106.252L381.34 106.188C381.425 106.188 381.532 106.188 381.66 106.188L381.724 106.252C381.724 106.295 381.766 107.639 381.852 110.284C381.852 110.881 382.492 113.121 383.772 117.004C384.369 118.881 384.71 120.503 384.796 121.868C384.796 122.039 384.732 122.316 384.604 122.7C384.518 123.127 384.476 123.447 384.476 123.66C384.518 123.873 384.604 124.236 384.732 124.748C384.86 125.303 384.902 125.729 384.86 126.028C384.86 126.071 384.71 126.476 384.411 127.244C383.772 128.737 382.876 129.463 381.724 129.42C381.638 129.42 381.233 129.249 380.508 128.908C380.166 128.737 379.718 128.332 379.163 127.692C378.865 126.839 378.374 125.559 377.691 123.852C377.179 122.615 376.881 120.609 376.795 117.836C376.795 117.153 376.902 116.535 377.115 115.98C377.329 115.425 377.542 114.871 377.755 114.316C377.798 114.273 377.841 114.039 377.883 113.612C377.841 112.887 377.819 111.82 377.819 110.412C377.819 110.199 377.862 109.9 377.947 109.516C378.033 109.132 378.076 108.812 378.076 108.556C378.033 108.513 377.969 107.937 377.883 106.828C377.755 105.975 377.734 105.42 377.819 105.164C377.99 105.249 378.246 105.271 378.587 105.228L378.651 105.1C378.651 105.057 378.545 103.479 378.331 100.364C378.331 100.193 378.395 99.8947 378.523 99.468C378.609 99.084 378.651 98.8067 378.651 98.636C378.651 98.4653 378.609 98.06 378.523 97.42C378.395 96.78 378.331 96.268 378.331 95.884L378.459 87.116C378.459 86.604 378.417 86.3267 378.331 86.284C378.246 86.2413 378.161 86.2413 378.076 86.284L378.011 86.348C377.883 86.604 377.819 87.0947 377.819 87.82C377.819 88.3747 377.862 89.2493 377.947 90.444C378.033 91.6387 378.076 92.4707 378.076 92.94C378.076 93.5373 378.011 93.9427 377.883 94.156C377.798 94.1987 377.713 94.1987 377.627 94.156C377.457 93.9427 377.371 92.812 377.371 90.764C377.371 90.4227 377.542 85.5587 377.883 76.172C377.926 75.7027 377.905 74.5293 377.819 72.652C377.691 70.7747 377.606 69.7293 377.563 69.516L375.771 64.012C375.686 63.756 375.857 63.6067 376.283 63.564C376.667 63.5213 376.881 63.5 376.923 63.5C376.966 63.3293 376.667 62.988 376.027 62.476C375.387 61.9213 375.067 61.452 375.067 61.068C375.067 60.3 375.494 59.6173 376.347 59.02C377.201 58.4227 378.011 58.124 378.779 58.124C379.163 58.124 379.654 58.572 380.252 59.468C380.252 59.5107 380.337 59.6813 380.508 59.98C380.678 60.2787 380.764 60.4493 380.764 60.492C381.062 60.7053 381.382 61.2387 381.724 62.092C382.022 62.7747 382.406 63.18 382.876 63.308C383.132 63.3933 383.836 63.2867 384.988 62.988C386.14 62.6467 386.78 62.476 386.908 62.476C387.718 62.5613 388.55 62.8387 389.404 63.308C390.641 63.948 391.324 64.7587 391.452 65.74C391.622 66.636 391.452 67.7667 390.94 69.132V71.18L391.836 72.908C392.689 73.932 393.862 74.444 395.356 74.444C396.593 74.444 398.172 74.1027 400.092 73.42C400.817 73.164 401.884 72.716 403.292 72.076C404.529 71.18 405.83 70.284 407.196 69.388C407.281 69.4733 407.324 69.5587 407.324 69.644C407.324 69.9427 407.068 70.3053 406.556 70.732C406.214 71.0307 405.852 71.308 405.468 71.564C405.34 71.7773 405.084 72.0973 404.7 72.524C402.737 74.1027 400.39 75.5107 397.66 76.748C396.678 77.0467 395.676 77.388 394.652 77.772C394.524 77.9 394.694 77.9853 395.164 78.028C395.676 78.028 396.572 77.772 397.852 77.26C398.62 76.9187 399.388 76.5773 400.156 76.236ZM381.468 105.356L381.596 105.548V105.676L381.404 105.804L381.276 105.74L381.148 105.676L381.084 105.42C381.169 105.292 381.297 105.271 381.468 105.356ZM377.755 104.332C377.499 102.54 377.499 101.388 377.755 100.876L377.883 100.812L378.011 100.876C378.054 100.961 378.118 101.537 378.203 102.604C378.246 103.713 378.225 104.311 378.139 104.396C378.054 104.396 377.947 104.396 377.819 104.396L377.755 104.332ZM381.34 102.476C381.468 102.604 381.51 102.711 381.468 102.796L381.34 102.924L381.212 102.86C381.084 102.732 381.041 102.604 381.084 102.476L381.212 102.412L381.34 102.476ZM378.076 99.916L377.883 99.98C377.414 99.9373 377.286 99.2547 377.499 97.932L377.627 97.868C377.755 97.8253 377.883 97.8253 378.011 97.868L378.076 97.932C378.246 98.9987 378.246 99.66 378.076 99.916ZM377.883 97.292H377.755L377.499 97.1L377.755 96.908L377.883 97.164V97.292ZM377.947 96.332L377.755 96.588H377.691C377.606 96.4173 377.585 96.1827 377.627 95.884L377.819 96.012L377.947 96.332ZM381.404 96.012L381.34 96.204L381.084 96.268L380.956 96.204L380.828 96.012L380.956 95.884L381.148 95.756L381.34 95.884L381.404 96.012ZM377.883 95.372L377.755 95.436H377.627L377.499 95.308C377.499 95.2227 377.542 95.116 377.627 94.988H377.755L377.883 95.116C377.926 95.2013 377.926 95.2867 377.883 95.372ZM381.34 95.308L381.212 95.372L381.02 95.308C380.892 94.924 380.956 94.7107 381.212 94.668L381.34 94.732C381.468 94.86 381.468 95.052 381.34 95.308ZM401.692 75.852C401.564 76.108 401.329 76.172 400.988 76.044L400.924 75.916V75.852C401.308 75.2973 401.564 75.2547 401.692 75.724V75.852ZM389.595 77.836C389.297 77.6653 389.02 77.4733 388.764 77.26C388.124 76.876 387.825 76.684 387.868 76.684L387.676 77.004L387.228 76.3L387.74 75.916C387.825 76.172 387.889 76.4067 387.932 76.62C388.145 77.132 388.252 77.4093 388.252 77.452L389.595 77.836ZM403.676 74.444C403.121 74.8707 402.865 75.084 402.908 75.084L402.78 74.956L402.716 74.7C402.844 74.4867 403.014 74.4227 403.228 74.508C403.654 74.0387 404.102 73.612 404.572 73.228C404.572 73.3133 404.273 73.7187 403.676 74.444ZM389.02 75.02C389.062 75.02 389.233 75.084 389.532 75.212C389.66 75.2547 389.788 75.2973 389.916 75.34C389.916 75.2547 389.702 75.02 389.276 74.636C388.849 74.2093 388.593 73.996 388.508 73.996H387.868L388.124 74.444L388.572 74.7C388.657 74.956 388.806 75.0627 389.02 75.02ZM380.38 72.076L380.444 71.948L380.059 71.628C379.931 71.3293 379.825 71.18 379.739 71.18L379.483 71.628L379.931 71.948C380.059 72.076 380.209 72.1187 380.38 72.076ZM377.563 65.996L377.755 65.164C377.755 65.1213 377.755 64.9507 377.755 64.652L377.371 64.46V64.204L376.923 64.012C376.838 64.396 376.881 64.652 377.051 64.78L377.563 65.996ZM420.504 59.596C420.504 59.5107 420.76 60.1507 421.272 61.516C421.784 62.8813 421.997 64.3533 421.912 65.932C421.741 68.7907 421.72 70.284 421.848 70.412C422.018 70.54 422.338 70.604 422.808 70.604C424.344 70.604 425.88 70.348 427.416 69.836C428.482 69.6227 429.016 69.6227 429.016 69.836C428.504 70.2627 428.013 70.7107 427.544 71.18C426.818 71.4787 425.624 71.7987 423.96 72.14C423.021 72.3107 422.104 72.4813 421.208 72.652C420.653 72.78 420.226 73.2707 419.928 74.124L417.944 80.012C417.56 81.0787 416.856 81.932 415.832 82.572C414.808 83.212 413.698 83.532 412.504 83.532C411.65 83.532 410.882 83.3613 410.2 83.02C409.901 82.892 409.453 82.4653 408.855 81.74C408.215 81.0147 407.895 80.3107 407.895 79.628C407.895 76.8973 407.874 75.3613 407.831 75.02L407.703 74.956C406.85 76.108 405.805 77.2813 404.567 78.476C404.354 78.3907 404.247 78.0067 404.247 77.324C404.247 76.6413 404.29 76.236 404.375 76.108C404.717 75.852 405.186 75.468 405.783 74.956C408.77 72.0973 410.477 70.1133 410.904 69.004C410.946 68.8333 410.968 68.6627 410.968 68.492C410.968 68.1507 410.69 67.4467 410.136 66.38C409.581 65.2707 409.303 64.332 409.303 63.564C409.303 61.5587 410.2 59.5533 411.992 57.548C413.784 55.5 415.661 54.4333 417.624 54.348C418.136 54.348 418.605 54.5827 419.032 55.052C419.501 55.5213 419.949 55.9907 420.376 56.46C420.461 56.844 420.482 57.3347 420.44 57.932C420.397 58.3587 420.376 58.764 420.376 59.148C420.418 59.3187 420.461 59.468 420.504 59.596ZM413.848 71.948L413.528 72.076C412.461 73.8253 411.928 75.5107 411.928 77.132C411.928 77.8573 412.077 78.476 412.376 78.988C412.461 79.2013 412.632 79.4787 412.888 79.82C413.741 80.076 414.808 79.2227 416.088 77.26C417.24 75.5107 417.858 74.1667 417.944 73.228L417.816 73.036C416.877 72.6947 415.554 72.332 413.848 71.948ZM408.151 73.932C408.493 73.804 408.77 73.356 408.983 72.588L408.855 72.332L408.599 72.46C408.002 73.1427 407.789 73.6333 407.959 73.932H408.151ZM415.448 65.548C415.533 65.292 415.704 64.9507 415.96 64.524C416.386 64.0547 417.218 63.9267 418.456 64.14L418.712 63.948V63.692C417.944 61.6867 416.557 60.684 414.552 60.684C412.845 60.684 411.992 61.4947 411.992 63.116C411.992 63.628 412.056 64.14 412.184 64.652C412.312 65.164 412.44 65.5053 412.568 65.676C412.738 65.804 413.144 65.868 413.784 65.868C414.594 65.868 415.149 65.7613 415.448 65.548ZM425.439 70.924C425.695 70.156 425.973 69.516 426.271 69.004C426.783 68.1933 427.146 67.532 427.359 67.02L428.895 64.204C428.981 63.8627 429.194 63.372 429.535 62.732L428.703 61.9C428.447 61.388 428.341 60.8547 428.383 60.3L429.151 59.66C429.706 59.4893 430.346 59.2333 431.072 58.892C431.2 58.636 431.328 58.4013 431.456 58.188C431.584 57.932 431.861 57.7613 432.288 57.676C433.312 57.676 434.058 57.7827 434.528 57.996C434.741 58.0813 435.317 58.4653 436.256 59.148C436.17 59.5747 436.277 60.1507 436.576 60.876C436.704 60.9613 437.792 61.1747 439.84 61.516C441.632 61.8147 442.592 62.1133 442.72 62.412C443.786 63.3507 444.32 64.0973 444.32 64.652C444.32 64.8227 444.298 65.0147 444.256 65.228C443.744 66.0387 442.912 67.5107 441.76 69.644L440.032 72.908L439.52 74.892C439.733 75.404 440.096 75.5747 440.608 75.404C441.76 75.1907 442.677 74.8067 443.36 74.252L444.576 73.356C445.088 72.9293 445.685 72.268 446.368 71.372L447.648 69.58L449.76 66.188C449.802 66.188 449.824 66.252 449.824 66.38C449.824 67.1053 449.44 68.1933 448.672 69.644L447.968 70.86C447.882 71.244 447.605 71.7987 447.135 72.524L446.56 73.548C446.432 73.676 446.176 73.996 445.792 74.508L445.152 75.212L444.128 76.236L441.568 78.22C441.354 78.348 440.864 78.6467 440.095 79.116C438.773 79.884 437.749 80.3533 437.024 80.524C435.914 80.524 435.061 80.3107 434.464 79.884C433.696 79.372 433.141 78.6893 432.799 77.836C432.458 76.9827 432.458 75.7453 432.799 74.124C432.928 74.124 433.12 73.9533 433.376 73.612C433.418 73.228 433.504 72.8013 433.632 72.332C433.674 72.204 433.802 72.0973 434.016 72.012C434.272 71.9267 434.442 71.7987 434.528 71.628C434.357 71.6707 434.229 71.6493 434.144 71.564C434.272 71.2227 434.4 70.9453 434.528 70.732C434.528 70.6467 435.189 69.5373 436.512 67.404C437.109 66.38 437.472 65.3773 437.6 64.396C437.258 63.628 436.49 63.0947 435.296 62.796C434.698 62.6253 434.08 62.6893 433.44 62.988C431.818 63.9693 430.495 65.2067 429.471 66.7L428.255 68.62L427.423 69.644C426.783 70.4547 426.122 70.8813 425.439 70.924ZM433.888 73.228C433.546 74.4653 433.525 75.1267 433.824 75.212C433.994 75.2547 434.314 74.8067 434.784 73.868C435.168 73.1427 435.36 72.6733 435.36 72.46C435.36 72.4173 435.104 72.332 434.592 72.204C434.336 72.1187 434.101 72.46 433.888 73.228ZM435.36 69.26C434.976 70.1133 434.954 70.7533 435.296 71.18C435.424 71.3507 435.53 71.436 435.616 71.436C435.786 71.436 435.936 71.0307 436.064 70.22C436.234 69.3667 436.384 68.8547 436.512 68.684C436.64 68.4707 436.704 68.3427 436.704 68.3C436.704 68.2573 436.682 68.236 436.64 68.236C436.597 68.236 436.469 68.2787 436.256 68.364C436.085 68.4493 435.978 68.492 435.936 68.492C435.85 68.492 435.829 68.4707 435.872 68.428C435.573 68.8973 435.402 69.1747 435.36 69.26ZM432.992 75.66C432.992 75.8307 433.077 76.0227 433.248 76.236C433.461 76.4493 433.61 76.556 433.696 76.556C433.781 76.556 433.824 76.2573 433.824 75.66C433.824 75.2333 433.632 75.02 433.248 75.02C433.077 75.02 432.992 75.2333 432.992 75.66ZM488.954 81.1C488.911 81.228 488.783 81.3773 488.569 81.548C488.058 81.676 487.29 81.868 486.266 82.124C485.199 82.508 484.346 82.764 483.706 82.892C483.535 82.9347 483.3 82.9987 483.002 83.084C481.892 83.1267 480.74 83.2333 479.546 83.404V83.468V83.596C479.588 83.6387 480.826 83.5533 483.257 83.34C484.58 83.212 486.351 82.7853 488.569 82.06C490.191 81.5053 491.002 81.292 491.002 81.42C489.85 81.9747 487.759 82.6787 484.729 83.532C484.602 83.532 484.388 83.532 484.09 83.532C483.706 83.66 483.087 83.8093 482.234 83.98C481.807 83.8947 481.018 83.8733 479.866 83.916L479.802 84.044L479.866 84.108L480.314 84.172C480.356 84.2147 480.356 84.2573 480.314 84.3C480.314 84.3427 480.292 84.364 480.25 84.364C479.482 84.364 479.076 84.364 479.034 84.364C479.034 84.236 478.97 84.108 478.842 83.98C479.055 83.98 478.82 84.108 478.138 84.364C477.839 84.4493 477.22 84.5133 476.282 84.556C475.471 84.5987 474.084 84.4493 472.122 84.108C470.159 83.7667 468.751 83.4253 467.898 83.084C467.428 82.9133 466.938 82.7 466.426 82.444V82.38L466.49 82.252C467.215 82.5933 468.111 82.892 469.178 83.148L469.242 83.084V82.956C468.644 82.4867 467.727 82.06 466.49 81.676L466.17 81.74C465.871 81.5267 465.487 81.2707 465.018 80.972C464.89 80.9293 464.676 80.8653 464.378 80.78C464.292 80.652 464.1 80.5027 463.802 80.332C463.503 80.1613 463.162 79.9693 462.778 79.756C462.394 79.5853 462.18 79.3507 462.138 79.052C461.882 78.9667 461.498 78.8173 460.986 78.604C460.815 78.348 460.516 78.0067 460.09 77.58C460.004 77.58 459.855 77.58 459.642 77.58C459.514 77.4093 459.3 77.1747 459.002 76.876C457.722 75.5533 456.484 73.8893 455.29 71.884C454.095 69.836 453.306 67.9587 452.922 66.252C452.836 65.6973 452.666 64.9933 452.41 64.14C452.367 64.14 451.77 64.0547 450.617 63.884C449.807 63.7987 449.017 64.268 448.249 65.292C447.439 66.316 447.012 66.828 446.969 66.828H445.497C445.199 66.828 444.879 66.1667 444.537 64.844C444.409 64.588 444.239 64.1827 444.025 63.628C443.94 63.5853 443.855 63.5213 443.769 63.436C443.641 63.308 443.577 63.1587 443.577 62.988C443.577 62.86 443.599 62.6467 443.641 62.348C443.641 62.092 443.641 61.8787 443.641 61.708C443.641 61.58 443.599 61.3667 443.513 61.068C443.428 60.7693 443.407 60.5347 443.449 60.364C443.449 60.108 443.513 59.6813 443.641 59.084C443.727 58.4867 443.769 58.0173 443.769 57.676C443.727 57.4627 443.599 57.1427 443.385 56.716C443.129 56.2893 443.044 55.948 443.129 55.692C443.257 54.9667 443.364 54.604 443.449 54.604C443.492 54.604 443.556 54.6253 443.641 54.668C444.708 55.564 445.967 56.1613 447.417 56.46C448.825 56.7587 450.255 57.036 451.706 57.292C451.876 57.3347 451.983 57.2493 452.026 57.036L452.474 49.612C452.474 49.3133 452.431 48.908 452.346 48.396C452.26 47.884 452.218 47.5427 452.218 47.372C452.26 46.7747 452.282 45.8573 452.282 44.62C452.239 44.4493 452.175 44.0227 452.09 43.34C452.004 42.7853 451.962 42.3373 451.962 41.996C451.962 41.868 451.983 41.74 452.026 41.612L452.154 41.548C452.111 41.548 452.303 41.6333 452.73 41.804C452.943 41.804 453.22 41.8467 453.562 41.932C453.775 42.1453 454.116 42.5293 454.586 43.084C454.671 43.2973 454.778 43.6387 454.906 44.108C455.29 45.1747 455.78 46.3053 456.378 47.5C456.591 47.7987 456.826 48.2467 457.082 48.844C457.466 50.0813 457.551 50.892 457.338 51.276C457.21 51.6173 456.996 52.0867 456.698 52.684C456.527 52.812 456.292 53.0467 455.994 53.388C455.738 53.7293 455.61 54.3907 455.61 55.372C455.61 56.396 455.738 57.036 455.994 57.292C456.036 57.3773 456.314 57.42 456.826 57.42C456.826 57.42 456.89 57.548 457.018 57.804C457.103 57.8893 457.274 57.932 457.53 57.932L457.594 57.868V57.74L457.274 57.548V57.484V57.356L457.338 57.292C457.594 57.3347 457.892 57.3773 458.234 57.42L458.298 57.548V57.868V57.932H458.426L483.257 58.7C483.471 58.7 483.983 58.828 484.794 59.084C484.794 59.1693 484.836 59.276 484.922 59.404C485.05 59.4467 485.156 59.4467 485.242 59.404C485.242 59.3187 485.263 59.212 485.306 59.084C485.391 58.9133 485.476 58.892 485.562 59.02C485.604 59.0627 485.626 59.1907 485.626 59.404C485.882 59.4893 486.074 59.532 486.201 59.532L487.802 59.66C487.844 59.6173 487.844 59.5533 487.802 59.468C487.29 59.4253 486.714 59.3613 486.074 59.276C486.031 59.2333 486.031 59.1693 486.074 59.084C486.159 58.9987 486.756 58.9987 487.866 59.084C488.975 59.1693 489.679 59.276 489.978 59.404V59.532V59.788C490.191 59.8307 490.511 59.8733 490.938 59.916L491.002 59.98C491.002 60.1507 490.98 60.236 490.938 60.236C490.895 60.2787 488.74 60.1507 484.474 59.852C484.26 59.9373 483.962 60.0013 483.578 60.044C483.066 59.9587 482.276 59.852 481.21 59.724C480.655 59.724 479.802 59.6813 478.65 59.596C478.479 59.6387 478.223 59.6813 477.882 59.724C476.431 59.6387 475.684 59.596 475.642 59.596L475.578 59.724L475.642 59.852C475.684 59.852 476.879 59.8947 479.226 59.98C479.268 59.98 479.503 60.1507 479.93 60.492V60.556C479.93 60.6413 479.908 60.684 479.866 60.684C471.631 60.4707 467.428 60.428 467.258 60.556C467.087 60.8547 467.044 61.0253 467.13 61.068C467.386 61.1533 468.132 61.132 469.37 61.004C470.522 60.876 471.183 60.8973 471.354 61.068C471.354 61.1533 471.332 61.26 471.29 61.388C470.692 61.3453 469.903 61.4307 468.922 61.644C468.922 61.7293 468.9 61.8787 468.858 62.092C468.815 62.1347 468.73 62.156 468.602 62.156H468.474C468.431 62.1133 468.367 62.0493 468.282 61.964C468.367 61.7933 468.41 61.6867 468.41 61.644C468.324 61.516 468.132 61.4307 467.833 61.388C467.706 61.4307 467.642 61.5587 467.642 61.772C467.684 61.7293 467.77 61.7293 467.898 61.772L467.962 61.836L467.898 61.964C467.258 62.0067 466.426 62.0493 465.402 62.092C464.378 62.1347 463.46 62.1987 462.65 62.284C462.479 62.3267 462.095 62.412 461.498 62.54C460.943 62.668 460.516 62.732 460.218 62.732C458.852 62.732 458.404 62.7107 458.874 62.668C458.234 62.7107 457.978 62.9453 458.106 63.372L458.17 63.436C458.596 63.3933 459.087 63.3933 459.642 63.436L459.706 63.564V63.692L459.578 63.756L458.298 63.82C457.999 63.692 457.508 63.6067 456.826 63.564C456.57 63.6493 456.676 64.2893 457.146 65.484L457.914 67.404C458.682 69.4093 459.407 70.988 460.09 72.14C460.559 72.908 461.519 74.2307 462.97 76.108C464.25 77.516 465.679 78.7107 467.258 79.692C468.068 80.204 469.284 80.8227 470.906 81.548C472.271 81.932 474.447 82.124 477.434 82.124C478.756 82.124 481.722 81.7187 486.33 80.908C486.927 80.8227 487.588 80.6307 488.314 80.332C489.039 80.076 489.786 79.9053 490.554 79.82C490.81 79.8627 491.087 79.884 491.386 79.884C490.916 80.268 490.575 80.524 490.362 80.652C489.935 80.908 489.466 81.0573 488.954 81.1ZM476.474 84.236V84.108V84.044C475.706 84.044 474.575 83.916 473.082 83.66L472.954 83.724V83.852L473.082 83.916C475.087 84.3 476.218 84.4067 476.474 84.236ZM472.506 83.916L472.57 83.852V83.724L472.506 83.596H472.378H472.25V83.788L472.314 83.916H472.506ZM478.394 83.724L478.458 83.596H478.394C478.308 83.5107 478.223 83.468 478.138 83.468C477.882 83.3827 477.711 83.3827 477.626 83.468C477.54 83.5533 477.583 83.6387 477.754 83.724C477.882 83.8093 478.095 83.8093 478.394 83.724ZM471.866 83.724L471.93 83.66V83.596C471.631 83.5107 471.29 83.4253 470.906 83.34L470.842 83.404V83.532C471.268 83.788 471.61 83.852 471.866 83.724ZM474.618 83.66L474.746 83.596V83.404C474.575 83.276 474.362 83.2547 474.106 83.34C473.807 83.3827 473.743 83.4467 473.914 83.532C474.084 83.6173 474.319 83.66 474.618 83.66ZM466.042 82.124L465.914 82.188C465.828 82.1453 465.786 82.0813 465.786 81.996L465.914 81.932L466.042 81.996V82.124ZM465.018 81.612L464.954 81.676L464.762 81.74L464.634 81.612V81.484L464.826 81.356L464.89 81.42C464.975 81.4627 465.018 81.5267 465.018 81.612ZM463.29 80.396L463.226 80.46C463.183 80.5453 463.119 80.588 463.034 80.588C462.991 80.5453 462.799 80.3747 462.458 80.076C462.884 80.1187 463.162 80.2253 463.29 80.396ZM460.922 63.628C460.751 63.756 460.516 63.7773 460.218 63.692C460.175 63.6493 460.154 63.6067 460.154 63.564C460.154 63.5213 460.26 63.4787 460.474 63.436C460.687 63.3933 460.836 63.3933 460.922 63.436V63.5V63.628ZM471.482 61.9C471.482 61.8573 471.652 61.836 471.994 61.836C472.335 61.836 472.527 61.8573 472.57 61.9V62.028V62.156C472.527 62.1987 472.335 62.22 471.994 62.22C471.652 62.22 471.482 62.1987 471.482 62.156C471.439 62.0707 471.439 61.9853 471.482 61.9ZM474.49 61.9C474.532 61.9 474.724 61.8787 475.066 61.836C475.407 61.7933 475.599 61.7933 475.642 61.836L475.706 61.964V62.092C475.663 62.092 475.45 62.1133 475.066 62.156C474.724 62.156 474.532 62.156 474.49 62.156C474.447 62.0707 474.447 61.9853 474.49 61.9ZM470.522 62.028C470.436 62.1133 470.351 62.156 470.266 62.156L470.138 62.092V61.964L470.266 61.836H470.458L470.522 61.9V62.028ZM469.434 62.156H469.37L469.242 62.028C469.242 61.8573 469.327 61.7507 469.498 61.708C469.54 61.7507 469.604 61.7933 469.69 61.836C469.69 61.964 469.604 62.0707 469.434 62.156ZM479.674 61.452C479.631 61.4947 478.906 61.5373 477.498 61.58C477.796 61.58 477.135 61.58 475.514 61.58C475.044 61.58 474.831 61.4307 474.874 61.132C474.916 61.0893 475.514 61.0893 476.666 61.132C477.604 61.132 478.607 61.1533 479.674 61.196L479.738 61.324L479.674 61.452ZM474.554 61.068C474.639 61.324 474.212 61.452 473.274 61.452C472.378 61.4947 471.866 61.452 471.738 61.324L471.674 61.196L471.738 61.068C471.78 61.0253 472.25 60.9827 473.146 60.94C474.042 60.94 474.511 60.9827 474.554 61.068ZM466.298 61.644L466.362 61.58L466.298 61.388L466.17 61.324H466.042L465.978 61.452V61.58L466.106 61.644H466.298ZM451.642 61.58H451.706C451.834 61.5373 451.898 61.4733 451.898 61.388C451.855 61.2173 451.791 61.1107 451.706 61.068C451.62 61.1107 451.556 61.196 451.514 61.324C451.514 61.4093 451.556 61.4947 451.642 61.58ZM482.49 61.26V61.452L482.362 61.516H482.298L482.17 61.452V61.324V61.196H482.362L482.49 61.26ZM481.21 61.324V61.452C481.124 61.5373 481.018 61.6013 480.89 61.644C480.804 61.6013 480.719 61.5373 480.634 61.452L480.698 61.324C480.783 61.196 480.868 61.132 480.954 61.132C481.039 61.132 481.124 61.196 481.21 61.324ZM483.002 60.876L482.938 60.748L483.002 60.684L483.066 60.62H486.01C486.308 60.62 486.458 60.7053 486.458 60.876C486.458 61.0893 486.308 61.1747 486.01 61.132C485.028 61.0893 484.026 61.004 483.002 60.876ZM482.49 60.876C482.49 60.876 482.447 60.876 482.362 60.876L480.698 60.748C480.655 60.6627 480.655 60.5987 480.698 60.556C481.295 60.556 481.892 60.5773 482.49 60.62L482.554 60.748L482.49 60.876ZM480.89 60.108L481.018 60.172V60.3C480.932 60.3853 480.847 60.428 480.762 60.428L480.634 60.3V60.172C480.719 60.1293 480.804 60.108 480.89 60.108ZM475.002 60.044C474.959 60.1293 474.959 60.1933 475.002 60.236C475.002 60.2787 476.154 60.3213 478.458 60.364C478.543 60.3213 478.543 60.3 478.458 60.3L475.066 60.044H475.002ZM474.234 60.364C474.362 60.3213 474.447 60.236 474.49 60.108L474.426 59.98L474.362 59.916C474.191 59.9587 474.106 60.044 474.106 60.172V60.3L474.234 60.364ZM489.21 59.916L489.338 59.852L489.402 59.724C489.359 59.596 489.274 59.5107 489.146 59.468H489.082L488.954 59.532V59.724L489.018 59.852L489.21 59.916ZM483.257 59.34C483.3 59.3827 483.386 59.4253 483.514 59.468L483.642 59.404V59.276L483.578 59.212L483.45 59.084L483.322 59.212L483.257 59.34ZM482.362 59.084C482.362 59.084 481.935 59.084 481.082 59.084C480.996 59.084 480.954 59.1053 480.954 59.148C480.954 59.2333 480.996 59.276 481.082 59.276H482.298C482.468 59.276 482.49 59.212 482.362 59.084Z"
    fill="currentColor"
  />
</svg>
