<svg
  width="192"
  height="192"
  viewBox="0 0 192 192"
  fill="none"
  xmlns="http://www.w3.org/2000/svg"
>
  <path
    d="M44.457 84.5H37.0352L32.2891 76.6289C31.3125 75.0013 30.5117 73.9531 29.8867 73.4844C29.2617 73.0156 28.5977 72.7812 27.8945 72.7812H25.9414V84.5H19.4961V54.2461H30.1016C37.3021 54.2461 40.9023 56.9805 40.9023 62.4492C40.9023 64.5065 40.2969 66.2708 39.0859 67.7422C37.888 69.2135 36.2344 70.2487 34.125 70.8477V70.9258C35.5182 71.3945 37.0612 72.931 38.7539 75.5352L44.457 84.5ZM25.9414 59.1484V67.8594H29.1055C30.6159 67.8594 31.8268 67.4232 32.7383 66.5508C33.6628 65.6654 34.125 64.5651 34.125 63.25C34.125 60.5156 32.4909 59.1484 29.2227 59.1484H25.9414ZM65.9805 75.4766H51.7617C51.9831 78.8229 54.0013 80.4961 57.8164 80.4961C60.1992 80.4961 62.3021 79.9102 64.125 78.7383V83.3672C62.1589 84.474 59.5807 85.0273 56.3906 85.0273C52.9531 85.0273 50.2773 84.0573 48.3633 82.1172C46.4622 80.1771 45.5117 77.4753 45.5117 74.0117C45.5117 70.5612 46.5273 67.7617 48.5586 65.6133C50.5898 63.4518 53.1419 62.3711 56.2148 62.3711C59.2747 62.3711 61.6641 63.3021 63.3828 65.1641C65.1146 67.013 65.9805 69.5586 65.9805 72.8008V75.4766ZM60.1016 71.5312C60.1016 68.3021 58.793 66.6875 56.1758 66.6875C55.0951 66.6875 54.138 67.1302 53.3047 68.0156C52.4714 68.901 51.9505 70.0729 51.7422 71.5312H60.1016ZM70.6094 64.207C71.5859 63.6602 72.888 63.2174 74.5156 62.8789C76.1562 62.5404 77.556 62.3711 78.7148 62.3711C84.7565 62.3711 87.7773 65.3984 87.7773 71.4531V84.5H81.7812V81.3555H81.7031C80.2318 83.8034 78.0768 85.0273 75.2383 85.0273C73.194 85.0273 71.5534 84.4479 70.3164 83.2891C69.0924 82.1172 68.4805 80.5286 68.4805 78.5234C68.4805 74.3828 70.9479 71.974 75.8828 71.2969L81.8203 70.4961C81.8203 67.9831 80.5117 66.7266 77.8945 66.7266C75.3164 66.7266 72.888 67.5078 70.6094 69.0703V64.207ZM77.7383 74.7148C75.4596 75.0143 74.3203 76.043 74.3203 77.8008C74.3203 78.6081 74.5938 79.2591 75.1406 79.7539C75.7005 80.2487 76.4492 80.4961 77.3867 80.4961C78.6758 80.4961 79.737 80.0404 80.5703 79.1289C81.4036 78.2174 81.8203 77.0846 81.8203 75.7305V74.1875L77.7383 74.7148ZM109.398 83.6992C107.888 84.5846 105.74 85.0273 102.953 85.0273C99.6589 85.0273 96.9961 84.0247 94.9648 82.0195C92.9336 80.0143 91.918 77.4167 91.918 74.2266C91.918 70.5547 93.0117 67.6641 95.1992 65.5547C97.3867 63.4323 100.303 62.3711 103.949 62.3711C106.41 62.3711 108.233 62.7096 109.418 63.3867V68.7969C107.973 67.7422 106.397 67.2148 104.691 67.2148C102.764 67.2148 101.215 67.8008 100.043 68.9727C98.8841 70.1445 98.3047 71.7526 98.3047 73.7969C98.3047 75.776 98.8581 77.3385 99.9648 78.4844C101.072 79.6172 102.576 80.1836 104.477 80.1836C106.156 80.1836 107.797 79.6497 109.398 78.582V83.6992ZM126.586 84.2461C125.635 84.7669 124.197 85.0273 122.27 85.0273C117.686 85.0273 115.395 82.6185 115.395 77.8008V67.6055H111.84V62.8984H115.395V58.1523L121.664 56.3555V62.8984H126.586V67.6055H121.664V76.707C121.664 79.0117 122.576 80.1641 124.398 80.1641C125.102 80.1641 125.831 79.9557 126.586 79.5391V84.2461Z"
    fill="#76D8F8"
  />
  <path
    d="M49.04 127.58C49.0133 127.607 48.9067 127.633 48.72 127.66L48.68 127.74C48.7333 128.087 48.64 128.313 48.4 128.42C48.0267 128.58 47.8267 128.673 47.8 128.7C47.5333 129.073 47.2533 129.38 46.96 129.62C46.4 130.02 45.56 130.433 44.44 130.86L44.4 130.9C44.4 130.9 44.4133 131.033 44.44 131.3V131.34C43.96 131.447 43.6667 131.527 43.56 131.58C43.32 131.74 43.0933 131.913 42.88 132.1C42.56 132.18 42.1333 132.327 41.6 132.54C41.4667 132.62 41.3067 132.713 41.12 132.82C41.0133 132.793 40.8667 132.78 40.68 132.78C40.6533 132.887 40.6 133.007 40.52 133.14C40.36 133.273 40.0533 133.353 39.6 133.38C39.1467 133.433 38.84 133.5 38.68 133.58C38.5467 133.66 38.3467 133.78 38.08 133.94C37.92 133.913 37.7067 133.913 37.44 133.94C37.4133 133.967 37.3867 134.033 37.36 134.14L37.28 134.18C37.12 134.1 36.9467 134.06 36.76 134.06C36.4933 134.06 36.0933 134.153 35.56 134.34C35.0267 134.553 34.64 134.633 34.4 134.58C34.3467 134.5 34.2533 134.42 34.12 134.34C34.0667 134.34 33.8933 134.433 33.6 134.62C33.3333 134.833 33.12 134.927 32.96 134.9L32.84 134.82V134.7L32.88 134.62C32.96 134.62 33.08 134.62 33.24 134.62L33.32 134.54L33.28 134.46L33.2 134.38C32.8 134.38 32.0667 134.58 31 134.98C30.7333 135.007 30.3333 135.087 29.8 135.22C29.56 135.38 29.28 135.54 28.96 135.7C28.9067 135.673 28.8 135.58 28.64 135.42C28.5067 135.287 28.4 135.22 28.32 135.22C28.2133 135.22 28.1067 135.287 28 135.42C27.8133 135.607 27.72 135.7 27.72 135.7C26.7867 135.673 24.9467 135.993 22.2 136.66C21.8 136.687 21.2133 136.767 20.44 136.9C18.0667 137.567 16.8533 137.9 16.8 137.9C16.7467 137.873 16.72 137.833 16.72 137.78C16.8267 137.54 17.32 137.273 18.2 136.98C18.8133 136.82 19.4133 136.647 20 136.46L20.08 136.38L20.04 136.06L20.08 135.98C20.1333 136.007 20.2 136.047 20.28 136.1C20.36 136.18 20.4267 136.22 20.48 136.22C20.7467 136.22 21.08 136.1 21.48 135.86C21.9067 135.62 22.1867 135.38 22.32 135.14C22.4533 135.14 22.6533 135.127 22.92 135.1C22.9733 135.1 23.3333 134.98 24 134.74C24.1333 134.607 24.3733 134.433 24.72 134.22H24.76C24.92 134.247 25.16 134.247 25.48 134.22L25.52 134.14L25.56 133.86L25.6 133.82C25.8133 133.847 26.08 133.847 26.4 133.82L33.04 131.18C33.3867 130.913 33.9467 130.54 34.72 130.06C35.7333 129.553 36.76 129.06 37.8 128.58C38.9467 127.993 39.92 127.407 40.72 126.82C41.8133 125.993 42.36 125.473 42.36 125.26C42.36 125.047 42.1733 124.927 41.8 124.9C41.5333 124.927 41.2667 124.94 41 124.94C40.7867 124.887 40.4667 124.807 40.04 124.7C39.48 124.673 38.6533 124.647 37.56 124.62C36.76 124.62 35.5867 124.58 34.04 124.5C32.7867 124.393 32.2933 124.34 32.56 124.34C32.2667 124.34 31.7733 124.393 31.08 124.5C30.4133 124.58 29.8933 124.607 29.52 124.58C27.8667 124.5 26.9333 124.473 26.72 124.5C26.5067 124.5 26.2133 124.473 25.84 124.42C25.4667 124.34 25.2 124.3 25.04 124.3C24.6933 124.3 24.3733 124.38 24.08 124.54H24.04L23.96 124.42C23.8533 124.447 23.7067 124.447 23.52 124.42C23.3867 124.367 23.1867 124.3 22.92 124.22C22.28 124.247 21.3333 124.233 20.08 124.18C17.4133 123.833 15.8267 123.58 15.32 123.42C15.16 123.34 14.88 123.22 14.48 123.06C14.3733 122.9 14.2267 122.7 14.04 122.46C13.7733 122.353 13.4267 122.113 13 121.74L11.28 119.18C11.12 118.913 10.9467 118.327 10.76 117.42C10.5467 116.487 10.44 115.687 10.44 115.02C10.44 114.647 10.48 114.367 10.56 114.18C10.6667 114.18 10.8267 114.153 11.04 114.1C11.0133 113.94 11.0267 113.753 11.08 113.54L11.28 113.46C11.3333 113.353 11.3333 113.18 11.28 112.94C11.2267 112.7 11.2133 112.553 11.24 112.5C11.2667 112.473 11.2933 112.46 11.32 112.46C11.3467 112.46 11.4133 112.5 11.52 112.58C11.6267 112.633 11.6933 112.66 11.72 112.66C11.72 112.66 11.7733 112.487 11.88 112.14C11.9067 112.087 11.96 111.993 12.04 111.86C12.2 111.327 12.4933 110.647 12.92 109.82L13.04 109.78L13.12 109.86C13.12 109.78 13.08 109.993 13 110.5L13.04 110.58H13.16C13.4267 110.233 13.6533 109.967 13.84 109.78C13.92 109.86 14.1333 109.9 14.48 109.9C14.6933 109.447 14.9733 108.873 15.32 108.18C15.5067 107.993 15.76 107.687 16.08 107.26C16.2133 106.993 16.4267 106.62 16.72 106.14C16.88 106.007 17.0933 105.793 17.36 105.5C17.36 105.367 17.4133 105.18 17.52 104.94C17.6533 104.913 17.84 104.873 18.08 104.82C18.1067 104.767 18.1467 104.7 18.2 104.62C18.2533 104.513 18.32 104.42 18.4 104.34C18.4533 104.26 18.4 104.153 18.24 104.02V103.94C18.5333 103.727 18.9733 103.407 19.56 102.98V102.9C19.48 102.82 19.4 102.633 19.32 102.34C19.4 102.287 19.52 102.207 19.68 102.1C20.3733 101.38 22.1067 100.367 24.88 99.06C25.04 99.0067 25.2933 98.9133 25.64 98.78C25.72 98.7 25.8533 98.5933 26.04 98.46L36.48 93.94C36.8 93.6733 37.1467 93.3933 37.52 93.1C37.6 93.1 37.9067 93.14 38.44 93.22C39.3733 93.4067 40.0267 93.6733 40.4 94.02C40.6133 94.2067 41.0533 94.8333 41.72 95.9C42.4133 96.9667 42.8133 97.62 42.92 97.86C43.2933 98.6867 43.56 99.4333 43.72 100.1C44.0133 101.327 44.16 102.473 44.16 103.54C44.16 104.207 44.0667 104.633 43.88 104.82C43.6933 104.98 43.5067 105.06 43.32 105.06C43.0533 105.06 42.7467 104.9 42.4 104.58C42.1333 104.34 41.8667 104.1 41.6 103.86C40.9067 103.407 40.2933 103.113 39.76 102.98C39.2267 102.847 38.68 102.78 38.12 102.78C36.9733 102.78 35.0933 103.353 32.48 104.5L30.92 105.18C28.8933 106.06 27.2267 106.913 25.92 107.74C25.7333 107.927 25.4533 108.153 25.08 108.42C24.9467 108.447 24.76 108.513 24.52 108.62C24.4133 108.753 24.24 108.927 24 109.14C23.8133 109.14 23.52 109.22 23.12 109.38C22.9333 109.593 22.6267 109.9 22.2 110.3C21.9867 110.3 21.6267 110.433 21.12 110.7C20.96 110.913 20.7333 111.207 20.44 111.58C19.72 112.247 19.0133 112.913 18.32 113.58C17.3067 114.647 16.8 115.513 16.8 116.18C16.8 116.473 16.9067 116.74 17.12 116.98C17.52 117.407 18.8267 117.793 21.04 118.14C22.6667 118.407 24.0933 118.567 25.32 118.62L36.36 119.18C38.9733 119.313 41.4533 119.807 43.8 120.66C46.8667 121.78 48.72 123.273 49.36 125.14C49.4933 125.54 49.56 125.82 49.56 125.98C49.56 126.06 49.5067 126.18 49.4 126.34C49.2933 126.5 49.2267 126.687 49.2 126.9C49.1733 127.087 49.12 127.313 49.04 127.58ZM23.12 124.62L23.04 124.7C22.8533 124.753 22.7333 124.753 22.68 124.7C22.6 124.673 22.5867 124.633 22.64 124.58C22.7733 124.42 22.9067 124.367 23.04 124.42L23.12 124.54V124.62ZM40.52 102.38C40.5733 102.327 40.6133 102.247 40.64 102.14L40.56 102.06L40.48 101.98C40.3733 102.007 40.2933 102.047 40.24 102.1V102.18C40.2667 102.287 40.32 102.353 40.4 102.38H40.52ZM21.8 102.22L21.88 102.18V102.06L21.8 102.02C21.72 101.967 21.6267 101.953 21.52 101.98L21.48 102.06L21.52 102.18C21.6267 102.26 21.72 102.273 21.8 102.22ZM37.88 99.66L38 99.7C38.1867 99.6467 38.28 99.5667 38.28 99.46C38.28 99.38 38.2267 99.3133 38.12 99.26C37.9867 99.2333 37.8933 99.2867 37.84 99.42C37.8133 99.5 37.8267 99.58 37.88 99.66ZM74.4475 132.5C74.4208 132.58 74.3408 132.673 74.2075 132.78C73.8875 132.86 73.4075 132.98 72.7675 133.14C72.1008 133.38 71.5675 133.54 71.1675 133.62C71.0608 133.647 70.9142 133.687 70.7275 133.74C70.0342 133.767 69.3142 133.833 68.5675 133.94V133.98V134.06C68.5942 134.087 69.3675 134.033 70.8875 133.9C71.7142 133.82 72.8208 133.553 74.2075 133.1C75.2208 132.753 75.7275 132.62 75.7275 132.7C75.0075 133.047 73.7008 133.487 71.8075 134.02C71.7275 134.02 71.5942 134.02 71.4075 134.02C71.1675 134.1 70.7808 134.193 70.2475 134.3C69.9808 134.247 69.4875 134.233 68.7675 134.26L68.7275 134.34L68.7675 134.38L69.0475 134.42C69.0742 134.447 69.0742 134.473 69.0475 134.5C69.0475 134.527 69.0342 134.54 69.0075 134.54C68.5275 134.54 68.2742 134.54 68.2475 134.54C68.2475 134.46 68.2075 134.38 68.1275 134.3C68.2608 134.3 68.1142 134.38 67.6875 134.54C67.5008 134.593 67.1142 134.633 66.5275 134.66C66.0208 134.687 65.1542 134.593 63.9275 134.38C62.7008 134.167 61.8208 133.953 61.2875 133.74C60.9942 133.633 60.6875 133.5 60.3675 133.34V133.3L60.4075 133.22C60.8608 133.433 61.4208 133.62 62.0875 133.78L62.1275 133.74V133.66C61.7542 133.367 61.1808 133.1 60.4075 132.86L60.2075 132.9C60.0208 132.767 59.7808 132.607 59.4875 132.42C59.4075 132.393 59.2742 132.353 59.0875 132.3C59.0342 132.22 58.9142 132.127 58.7275 132.02C58.5408 131.913 58.3275 131.793 58.0875 131.66C57.8475 131.553 57.7142 131.407 57.6875 131.22C57.5275 131.167 57.2875 131.073 56.9675 130.94C56.8608 130.78 56.6742 130.567 56.4075 130.3C56.3542 130.3 56.2608 130.3 56.1275 130.3C56.0475 130.193 55.9142 130.047 55.7275 129.86C54.9275 129.033 54.1542 127.993 53.4075 126.74C52.6608 125.46 52.1675 124.287 51.9275 123.22C51.8742 122.873 51.7675 122.433 51.6075 121.9C51.5808 121.9 51.2075 121.847 50.4875 121.74C49.9808 121.687 49.4875 121.98 49.0075 122.62C48.5008 123.26 48.2342 123.58 48.2075 123.58H47.2875C47.1008 123.58 46.9008 123.167 46.6875 122.34C46.6075 122.18 46.5008 121.927 46.3675 121.58C46.3142 121.553 46.2608 121.513 46.2075 121.46C46.1275 121.38 46.0875 121.287 46.0875 121.18C46.0875 121.1 46.1008 120.967 46.1275 120.78C46.1275 120.62 46.1275 120.487 46.1275 120.38C46.1275 120.3 46.1008 120.167 46.0475 119.98C45.9942 119.793 45.9808 119.647 46.0075 119.54C46.0075 119.38 46.0475 119.113 46.1275 118.74C46.1808 118.367 46.2075 118.073 46.2075 117.86C46.1808 117.727 46.1008 117.527 45.9675 117.26C45.8075 116.993 45.7542 116.78 45.8075 116.62C45.8875 116.167 45.9542 115.94 46.0075 115.94C46.0342 115.94 46.0742 115.953 46.1275 115.98C46.7942 116.54 47.5808 116.913 48.4875 117.1C49.3675 117.287 50.2608 117.46 51.1675 117.62C51.2742 117.647 51.3408 117.593 51.3675 117.46L51.6475 112.82C51.6475 112.633 51.6208 112.38 51.5675 112.06C51.5142 111.74 51.4875 111.527 51.4875 111.42C51.5142 111.047 51.5275 110.473 51.5275 109.7C51.5008 109.593 51.4608 109.327 51.4075 108.9C51.3542 108.553 51.3275 108.273 51.3275 108.06C51.3275 107.98 51.3408 107.9 51.3675 107.82L51.4475 107.78C51.4208 107.78 51.5408 107.833 51.8075 107.94C51.9408 107.94 52.1142 107.967 52.3275 108.02C52.4608 108.153 52.6742 108.393 52.9675 108.74C53.0208 108.873 53.0875 109.087 53.1675 109.38C53.4075 110.047 53.7142 110.753 54.0875 111.5C54.2208 111.687 54.3675 111.967 54.5275 112.34C54.7675 113.113 54.8208 113.62 54.6875 113.86C54.6075 114.073 54.4742 114.367 54.2875 114.74C54.1808 114.82 54.0342 114.967 53.8475 115.18C53.6875 115.393 53.6075 115.807 53.6075 116.42C53.6075 117.06 53.6875 117.46 53.8475 117.62C53.8742 117.673 54.0475 117.7 54.3675 117.7C54.3675 117.7 54.4075 117.78 54.4875 117.94C54.5408 117.993 54.6475 118.02 54.8075 118.02L54.8475 117.98V117.9L54.6475 117.78V117.74V117.66L54.6875 117.62C54.8475 117.647 55.0342 117.673 55.2475 117.7L55.2875 117.78V117.98V118.02H55.3675L70.8875 118.5C71.0208 118.5 71.3408 118.58 71.8475 118.74C71.8475 118.793 71.8742 118.86 71.9275 118.94C72.0075 118.967 72.0742 118.967 72.1275 118.94C72.1275 118.887 72.1408 118.82 72.1675 118.74C72.2208 118.633 72.2742 118.62 72.3275 118.7C72.3542 118.727 72.3675 118.807 72.3675 118.94C72.5275 118.993 72.6475 119.02 72.7275 119.02L73.7275 119.1C73.7542 119.073 73.7542 119.033 73.7275 118.98C73.4075 118.953 73.0475 118.913 72.6475 118.86C72.6208 118.833 72.6208 118.793 72.6475 118.74C72.7008 118.687 73.0742 118.687 73.7675 118.74C74.4608 118.793 74.9008 118.86 75.0875 118.94V119.02V119.18C75.2208 119.207 75.4208 119.233 75.6875 119.26L75.7275 119.3C75.7275 119.407 75.7142 119.46 75.6875 119.46C75.6608 119.487 74.3142 119.407 71.6475 119.22C71.5142 119.273 71.3275 119.313 71.0875 119.34C70.7675 119.287 70.2742 119.22 69.6075 119.14C69.2608 119.14 68.7275 119.113 68.0075 119.06C67.9008 119.087 67.7408 119.113 67.5275 119.14C66.6208 119.087 66.1542 119.06 66.1275 119.06L66.0875 119.14L66.1275 119.22C66.1542 119.22 66.9008 119.247 68.3675 119.3C68.3942 119.3 68.5408 119.407 68.8075 119.62V119.66C68.8075 119.713 68.7942 119.74 68.7675 119.74C63.6208 119.607 60.9942 119.58 60.8875 119.66C60.7808 119.847 60.7542 119.953 60.8075 119.98C60.9675 120.033 61.4342 120.02 62.2075 119.94C62.9275 119.86 63.3408 119.873 63.4475 119.98C63.4475 120.033 63.4342 120.1 63.4075 120.18C63.0342 120.153 62.5408 120.207 61.9275 120.34C61.9275 120.393 61.9142 120.487 61.8875 120.62C61.8608 120.647 61.8075 120.66 61.7275 120.66H61.6475C61.6208 120.633 61.5808 120.593 61.5275 120.54C61.5808 120.433 61.6075 120.367 61.6075 120.34C61.5542 120.26 61.4342 120.207 61.2475 120.18C61.1675 120.207 61.1275 120.287 61.1275 120.42C61.1542 120.393 61.2075 120.393 61.2875 120.42L61.3275 120.46L61.2875 120.54C60.8875 120.567 60.3675 120.593 59.7275 120.62C59.0875 120.647 58.5142 120.687 58.0075 120.74C57.9008 120.767 57.6608 120.82 57.2875 120.9C56.9408 120.98 56.6742 121.02 56.4875 121.02C55.6342 121.02 55.3542 121.007 55.6475 120.98C55.2475 121.007 55.0875 121.153 55.1675 121.42L55.2075 121.46C55.4742 121.433 55.7808 121.433 56.1275 121.46L56.1675 121.54V121.62L56.0875 121.66L55.2875 121.7C55.1008 121.62 54.7942 121.567 54.3675 121.54C54.2075 121.593 54.2742 121.993 54.5675 122.74L55.0475 123.94C55.5275 125.193 55.9808 126.18 56.4075 126.9C56.7008 127.38 57.3008 128.207 58.2075 129.38C59.0075 130.26 59.9008 131.007 60.8875 131.62C61.3942 131.94 62.1542 132.327 63.1675 132.78C64.0208 133.02 65.3808 133.14 67.2475 133.14C68.0742 133.14 69.9275 132.887 72.8075 132.38C73.1808 132.327 73.5942 132.207 74.0475 132.02C74.5008 131.86 74.9675 131.753 75.4475 131.7C75.6075 131.727 75.7808 131.74 75.9675 131.74C75.6742 131.98 75.4608 132.14 75.3275 132.22C75.0608 132.38 74.7675 132.473 74.4475 132.5ZM66.6475 134.46V134.38V134.34C66.1675 134.34 65.4608 134.26 64.5275 134.1L64.4475 134.14V134.22L64.5275 134.26C65.7808 134.5 66.4875 134.567 66.6475 134.46ZM64.1675 134.26L64.2075 134.22V134.14L64.1675 134.06H64.0875H64.0075V134.18L64.0475 134.26H64.1675ZM67.8475 134.14L67.8875 134.06H67.8475C67.7942 134.007 67.7408 133.98 67.6875 133.98C67.5275 133.927 67.4208 133.927 67.3675 133.98C67.3142 134.033 67.3408 134.087 67.4475 134.14C67.5275 134.193 67.6608 134.193 67.8475 134.14ZM63.7675 134.14L63.8075 134.1V134.06C63.6208 134.007 63.4075 133.953 63.1675 133.9L63.1275 133.94V134.02C63.3942 134.18 63.6075 134.22 63.7675 134.14ZM65.4875 134.1L65.5675 134.06V133.94C65.4608 133.86 65.3275 133.847 65.1675 133.9C64.9808 133.927 64.9408 133.967 65.0475 134.02C65.1542 134.073 65.3008 134.1 65.4875 134.1ZM60.1275 133.14L60.0475 133.18C59.9942 133.153 59.9675 133.113 59.9675 133.06L60.0475 133.02L60.1275 133.06V133.14ZM59.4875 132.82L59.4475 132.86L59.3275 132.9L59.2475 132.82V132.74L59.3675 132.66L59.4075 132.7C59.4608 132.727 59.4875 132.767 59.4875 132.82ZM58.4075 132.06L58.3675 132.1C58.3408 132.153 58.3008 132.18 58.2475 132.18C58.2208 132.153 58.1008 132.047 57.8875 131.86C58.1542 131.887 58.3275 131.953 58.4075 132.06ZM56.9275 121.58C56.8208 121.66 56.6742 121.673 56.4875 121.62C56.4608 121.593 56.4475 121.567 56.4475 121.54C56.4475 121.513 56.5142 121.487 56.6475 121.46C56.7808 121.433 56.8742 121.433 56.9275 121.46V121.5V121.58ZM63.5275 120.5C63.5275 120.473 63.6342 120.46 63.8475 120.46C64.0608 120.46 64.1808 120.473 64.2075 120.5V120.58V120.66C64.1808 120.687 64.0608 120.7 63.8475 120.7C63.6342 120.7 63.5275 120.687 63.5275 120.66C63.5008 120.607 63.5008 120.553 63.5275 120.5ZM65.4075 120.5C65.4342 120.5 65.5542 120.487 65.7675 120.46C65.9808 120.433 66.1008 120.433 66.1275 120.46L66.1675 120.54V120.62C66.1408 120.62 66.0075 120.633 65.7675 120.66C65.5542 120.66 65.4342 120.66 65.4075 120.66C65.3808 120.607 65.3808 120.553 65.4075 120.5ZM62.9275 120.58C62.8742 120.633 62.8208 120.66 62.7675 120.66L62.6875 120.62V120.54L62.7675 120.46H62.8875L62.9275 120.5V120.58ZM62.2475 120.66H62.2075L62.1275 120.58C62.1275 120.473 62.1808 120.407 62.2875 120.38C62.3142 120.407 62.3542 120.433 62.4075 120.46C62.4075 120.54 62.3542 120.607 62.2475 120.66ZM68.6475 120.22C68.6208 120.247 68.1675 120.273 67.2875 120.3C67.4742 120.3 67.0608 120.3 66.0475 120.3C65.7542 120.3 65.6208 120.207 65.6475 120.02C65.6742 119.993 66.0475 119.993 66.7675 120.02C67.3542 120.02 67.9808 120.033 68.6475 120.06L68.6875 120.14L68.6475 120.22ZM65.4475 119.98C65.5008 120.14 65.2342 120.22 64.6475 120.22C64.0875 120.247 63.7675 120.22 63.6875 120.14L63.6475 120.06L63.6875 119.98C63.7142 119.953 64.0075 119.927 64.5675 119.9C65.1275 119.9 65.4208 119.927 65.4475 119.98ZM60.2875 120.34L60.3275 120.3L60.2875 120.18L60.2075 120.14H60.1275L60.0875 120.22V120.3L60.1675 120.34H60.2875ZM51.1275 120.3H51.1675C51.2475 120.273 51.2875 120.233 51.2875 120.18C51.2608 120.073 51.2208 120.007 51.1675 119.98C51.1142 120.007 51.0742 120.06 51.0475 120.14C51.0475 120.193 51.0742 120.247 51.1275 120.3ZM70.4075 120.1V120.22L70.3275 120.26H70.2875L70.2075 120.22V120.14V120.06H70.3275L70.4075 120.1ZM69.6075 120.14V120.22C69.5542 120.273 69.4875 120.313 69.4075 120.34C69.3542 120.313 69.3008 120.273 69.2475 120.22L69.2875 120.14C69.3408 120.06 69.3942 120.02 69.4475 120.02C69.5008 120.02 69.5542 120.06 69.6075 120.14ZM70.7275 119.86L70.6875 119.78L70.7275 119.74L70.7675 119.7H72.6075C72.7942 119.7 72.8875 119.753 72.8875 119.86C72.8875 119.993 72.7942 120.047 72.6075 120.02C71.9942 119.993 71.3675 119.94 70.7275 119.86ZM70.4075 119.86C70.4075 119.86 70.3808 119.86 70.3275 119.86L69.2875 119.78C69.2608 119.727 69.2608 119.687 69.2875 119.66C69.6608 119.66 70.0342 119.673 70.4075 119.7L70.4475 119.78L70.4075 119.86ZM69.4075 119.38L69.4875 119.42V119.5C69.4342 119.553 69.3808 119.58 69.3275 119.58L69.2475 119.5V119.42C69.3008 119.393 69.3542 119.38 69.4075 119.38ZM65.7275 119.34C65.7008 119.393 65.7008 119.433 65.7275 119.46C65.7275 119.487 66.4475 119.513 67.8875 119.54C67.9408 119.513 67.9408 119.5 67.8875 119.5L65.7675 119.34H65.7275ZM65.2475 119.54C65.3275 119.513 65.3808 119.46 65.4075 119.38L65.3675 119.3L65.3275 119.26C65.2208 119.287 65.1675 119.34 65.1675 119.42V119.5L65.2475 119.54ZM74.6075 119.26L74.6875 119.22L74.7275 119.14C74.7008 119.06 74.6475 119.007 74.5675 118.98H74.5275L74.4475 119.02V119.14L74.4875 119.22L74.6075 119.26ZM70.8875 118.9C70.9142 118.927 70.9675 118.953 71.0475 118.98L71.1275 118.94V118.86L71.0875 118.82L71.0075 118.74L70.9275 118.82L70.8875 118.9ZM70.3275 118.74C70.3275 118.74 70.0608 118.74 69.5275 118.74C69.4742 118.74 69.4475 118.753 69.4475 118.78C69.4475 118.833 69.4742 118.86 69.5275 118.86H70.2875C70.3942 118.86 70.4075 118.82 70.3275 118.74ZM80.6103 115.22C80.6636 115.22 80.8236 115.273 81.0903 115.38C81.3836 115.487 81.5836 115.54 81.6903 115.54C81.7436 115.567 81.997 115.433 82.4503 115.14C82.5836 115.033 82.7036 114.98 82.8103 114.98C82.9436 115.007 83.157 115.033 83.4503 115.06C83.5036 115.06 83.5836 115.047 83.6903 115.02C83.797 114.967 83.8903 114.94 83.9703 114.94H84.0103C84.3836 114.993 84.7836 115.247 85.2103 115.7C85.5303 116.073 85.8503 116.447 86.1703 116.82C86.3836 117.007 86.5036 117.26 86.5303 117.58C86.557 117.74 86.517 117.913 86.4103 118.1C86.3303 118.26 86.2903 118.353 86.2903 118.38C86.2903 118.513 86.3703 118.58 86.5303 118.58C86.5836 118.58 86.6903 118.553 86.8503 118.5C87.0103 118.447 87.1436 118.42 87.2503 118.42C87.6503 118.42 87.9436 118.66 88.1303 119.14C88.1036 119.407 88.1436 119.847 88.2503 120.46C88.277 120.567 88.397 120.713 88.6103 120.9C88.8236 121.06 88.9303 121.233 88.9303 121.42C88.9303 121.82 88.8236 122.327 88.6103 122.94C88.4236 123.553 88.317 123.98 88.2903 124.22C88.2636 124.407 88.277 124.833 88.3303 125.5C88.4103 126.167 88.4903 126.593 88.5703 126.78C88.7303 127.287 88.8636 127.633 88.9703 127.82C89.077 128.007 89.277 128.26 89.5703 128.58C90.1036 128.98 90.7436 129.46 91.4903 130.02C91.597 130.127 91.6503 130.22 91.6503 130.3C91.6503 130.327 91.637 130.367 91.6103 130.42C91.5836 130.473 91.5703 130.527 91.5703 130.58C91.5703 130.793 91.8236 131.113 92.3303 131.54C91.6636 131.54 90.557 131.3 89.0103 130.82C88.0236 130.5 87.077 130.007 86.1703 129.34C85.2903 128.647 84.7303 127.94 84.4903 127.22C84.4636 127.193 84.437 126.367 84.4103 124.74C84.3836 124.153 84.317 123.807 84.2103 123.7C84.1303 123.673 84.0903 123.847 84.0903 124.22C84.0103 124.487 83.8903 124.82 83.7303 125.22C83.5703 125.487 83.3703 125.9 83.1303 126.46C82.9436 126.807 82.7436 127.207 82.5303 127.66C82.2103 128.14 81.8636 128.673 81.4903 129.26C81.3036 129.633 80.9436 130.127 80.4103 130.74C80.117 130.847 79.717 131.047 79.2103 131.34C79.1303 131.447 78.9836 131.607 78.7703 131.82C78.3703 132.22 77.917 132.527 77.4103 132.74C77.1703 132.847 76.5303 132.82 75.4903 132.66C75.197 132.633 74.757 132.567 74.1703 132.46C72.917 132.113 72.3836 131.087 72.5703 129.38C72.6236 129.273 72.7036 129.127 72.8103 128.94C72.7836 128.78 72.797 128.58 72.8503 128.34C73.0103 128.18 73.197 128.167 73.4103 128.3C73.437 128.353 73.4503 128.433 73.4503 128.54C73.4503 128.673 73.4103 128.993 73.3303 129.5C73.2503 130.007 73.2103 130.393 73.2103 130.66C73.2103 130.953 73.2503 131.193 73.3303 131.38C73.437 131.46 73.5436 131.473 73.6503 131.42L73.7703 131.3C73.7703 131.3 73.7703 130.86 73.7703 129.98C73.7703 129.5 73.8103 129.033 73.8903 128.58C73.917 128.473 73.9836 128.247 74.0903 127.9C74.197 127.553 74.2503 127.327 74.2503 127.22V127.18C74.2236 127.153 74.117 127.207 73.9303 127.34C73.7436 127.473 73.6236 127.567 73.5703 127.62C73.517 127.647 73.4903 127.74 73.4903 127.9L73.4503 127.98C73.317 127.953 73.197 127.927 73.0903 127.9V127.78C73.0903 127.593 73.157 127.433 73.2903 127.3C73.3703 127.327 73.4636 127.313 73.5703 127.26C73.5703 127.047 73.6903 126.767 73.9303 126.42H74.0503C74.1303 126.287 74.2503 126.1 74.4103 125.86C74.517 125.833 74.6636 125.753 74.8503 125.62C74.877 125.46 74.8103 125.327 74.6503 125.22C74.6236 125.007 74.8103 124.847 75.2103 124.74C75.5836 124.607 75.7836 124.527 75.8103 124.5C75.7836 124.58 75.7436 124.407 75.6903 123.98C75.717 123.9 76.8636 122.527 79.1303 119.86C79.5303 119.38 79.9703 118.26 80.4503 116.5C80.5303 116.34 80.6103 116.113 80.6903 115.82C80.6636 115.687 80.637 115.487 80.6103 115.22ZM75.0503 131.58L75.1303 131.5L75.0903 131.3L74.9303 131.22L74.7703 131.26L74.6903 131.38L74.7303 131.54L74.8903 131.62L75.0503 131.58ZM77.6903 127.14H77.5703L77.5303 126.98C77.637 126.847 77.717 126.727 77.7703 126.62V126.54L77.6903 126.5C77.557 126.527 77.3836 126.567 77.1703 126.62C77.0903 126.673 76.9436 126.86 76.7303 127.18C76.517 127.473 76.4236 127.66 76.4503 127.74C76.477 127.82 76.5436 127.873 76.6503 127.9C76.8636 127.9 76.997 127.767 77.0503 127.5L77.2903 127.34L77.4503 127.38L77.5303 127.5C77.5303 127.58 77.4903 127.687 77.4103 127.82C77.1703 128.14 76.8903 128.287 76.5703 128.26C76.2503 128.233 76.077 128.247 76.0503 128.3L76.0903 128.46C76.2236 128.513 76.3703 128.58 76.5303 128.66L76.5703 128.78L76.4903 128.86C76.357 128.86 76.237 128.82 76.1303 128.74L76.0503 128.78C75.9436 128.993 75.9036 129.14 75.9303 129.22L75.9703 129.3C76.237 129.3 76.397 129.367 76.4503 129.5C76.5036 129.687 76.4903 129.833 76.4103 129.94C76.3303 130.02 76.2903 130.1 76.2903 130.18C76.3703 130.26 76.4503 130.393 76.5303 130.58C76.5036 130.687 76.477 130.807 76.4503 130.94L76.5303 131.06L76.7303 131.14C76.9436 131.087 77.2236 131.007 77.5703 130.9C77.6503 130.82 77.7836 130.713 77.9703 130.58C78.3703 130.42 78.877 130.113 79.4903 129.66L82.3703 125.86C83.037 124.927 83.317 124.313 83.2103 124.02C83.0503 123.993 82.7303 124.127 82.2503 124.42C81.9303 124.633 81.6236 124.833 81.3303 125.02C81.2236 125.02 81.1036 124.98 80.9703 124.9C80.837 124.82 80.7303 124.78 80.6503 124.78C80.5436 124.78 80.4236 124.847 80.2903 124.98C79.597 125.62 78.7303 126.34 77.6903 127.14ZM74.4103 130.98C74.4903 131.033 74.557 131.06 74.6103 131.06C74.7703 131.06 74.877 130.833 74.9303 130.38C74.957 130.087 74.9836 129.793 75.0103 129.5C75.2236 128.967 75.5303 128.153 75.9303 127.06C75.957 126.953 75.957 126.887 75.9303 126.86H75.8903C74.717 127.553 74.157 128.673 74.2103 130.22C74.237 130.647 74.3036 130.9 74.4103 130.98ZM80.1703 126.02L80.0503 125.94V125.82C80.1303 125.607 80.3703 125.42 80.7703 125.26C80.8236 125.287 80.8636 125.353 80.8903 125.46C80.6503 125.807 80.4103 125.993 80.1703 126.02ZM90.4934 126.14C90.6534 125.66 90.8268 125.26 91.0134 124.94C91.3334 124.433 91.5601 124.02 91.6934 123.7L92.6534 121.94C92.7068 121.727 92.8401 121.42 93.0534 121.02L92.5334 120.5C92.3734 120.18 92.3068 119.847 92.3334 119.5L92.8134 119.1C93.1601 118.993 93.5601 118.833 94.0134 118.62C94.0934 118.46 94.1734 118.313 94.2534 118.18C94.3334 118.02 94.5068 117.913 94.7734 117.86C95.4134 117.86 95.8801 117.927 96.1734 118.06C96.3068 118.113 96.6668 118.353 97.2534 118.78C97.2001 119.047 97.2668 119.407 97.4534 119.86C97.5334 119.913 98.2134 120.047 99.4934 120.26C100.613 120.447 101.213 120.633 101.293 120.82C101.96 121.407 102.293 121.873 102.293 122.22C102.293 122.327 102.28 122.447 102.253 122.58C101.933 123.087 101.413 124.007 100.693 125.34L99.6134 127.38L99.2934 128.62C99.4268 128.94 99.6534 129.047 99.9734 128.94C100.693 128.807 101.267 128.567 101.693 128.22L102.453 127.66C102.773 127.393 103.147 126.98 103.573 126.42L104.373 125.3L105.693 123.18C105.72 123.18 105.733 123.22 105.733 123.3C105.733 123.753 105.493 124.433 105.013 125.34L104.573 126.1C104.52 126.34 104.347 126.687 104.053 127.14L103.693 127.78C103.613 127.86 103.453 128.06 103.213 128.38L102.813 128.82L102.173 129.46L100.573 130.7C100.44 130.78 100.133 130.967 99.6534 131.26C98.8268 131.74 98.1868 132.033 97.7334 132.14C97.0401 132.14 96.5068 132.007 96.1334 131.74C95.6534 131.42 95.3068 130.993 95.0934 130.46C94.8801 129.927 94.8801 129.153 95.0934 128.14C95.1734 128.14 95.2934 128.033 95.4534 127.82C95.4801 127.58 95.5334 127.313 95.6134 127.02C95.6401 126.94 95.7201 126.873 95.8534 126.82C96.0134 126.767 96.1201 126.687 96.1734 126.58C96.0668 126.607 95.9868 126.593 95.9334 126.54C96.0134 126.327 96.0934 126.153 96.1734 126.02C96.1734 125.967 96.5868 125.273 97.4134 123.94C97.7868 123.3 98.0134 122.673 98.0934 122.06C97.8801 121.58 97.4001 121.247 96.6534 121.06C96.2801 120.953 95.8934 120.993 95.4934 121.18C94.4801 121.793 93.6534 122.567 93.0134 123.5L92.2534 124.7L91.7334 125.34C91.3334 125.847 90.9201 126.113 90.4934 126.14ZM95.7734 127.58C95.5601 128.353 95.5468 128.767 95.7334 128.82C95.8401 128.847 96.0401 128.567 96.3334 127.98C96.5734 127.527 96.6934 127.233 96.6934 127.1C96.6934 127.073 96.5334 127.02 96.2134 126.94C96.0534 126.887 95.9068 127.1 95.7734 127.58ZM96.6934 125.1C96.4534 125.633 96.4401 126.033 96.6534 126.3C96.7334 126.407 96.8001 126.46 96.8534 126.46C96.9601 126.46 97.0534 126.207 97.1334 125.7C97.2401 125.167 97.3334 124.847 97.4134 124.74C97.4934 124.607 97.5334 124.527 97.5334 124.5C97.5334 124.473 97.5201 124.46 97.4934 124.46C97.4668 124.46 97.3868 124.487 97.2534 124.54C97.1468 124.593 97.0801 124.62 97.0534 124.62C97.0001 124.62 96.9868 124.607 97.0134 124.58C96.8268 124.873 96.7201 125.047 96.6934 125.1ZM95.2134 129.1C95.2134 129.207 95.2668 129.327 95.3734 129.46C95.5068 129.593 95.6001 129.66 95.6534 129.66C95.7068 129.66 95.7334 129.473 95.7334 129.1C95.7334 128.833 95.6134 128.7 95.3734 128.7C95.2668 128.7 95.2134 128.833 95.2134 129.1ZM118.91 129.46L118.95 129.5C119.056 129.607 119.083 129.7 119.03 129.78C118.976 129.807 118.243 130.113 116.83 130.7C116.27 130.913 115.51 131.02 114.55 131.02C112.63 131.02 111.336 130.753 110.67 130.22C110.483 130.087 110.243 129.753 109.95 129.22C109.656 128.687 109.51 128.42 109.51 128.42C109.403 128.18 109.19 127.807 108.87 127.3C108.79 127.193 108.736 127.153 108.71 127.18C108.71 127.18 108.696 127.313 108.67 127.58C108.643 127.713 108.616 127.993 108.59 128.42C108.59 129.62 108.603 130.18 108.63 130.1C108.47 130.82 108.243 131.9 107.95 133.34C107.683 134.807 107.483 136.487 107.35 138.38C107.35 138.967 107.31 139.58 107.23 140.22L107.19 140.26C107.003 140.233 106.936 139.953 106.99 139.42L107.59 133.74C107.59 133.74 107.576 133.713 107.55 133.66L107.47 133.62L107.39 133.66C107.39 133.66 107.376 133.673 107.35 133.7L107.11 134.98C107.11 135.087 107.11 135.26 107.11 135.5C107.083 135.847 107.016 136.327 106.91 136.94C106.856 137.073 106.803 137.26 106.75 137.5C106.776 137.713 106.79 138.047 106.79 138.5C106.79 138.687 106.763 139.02 106.71 139.5C106.656 139.98 106.63 140.34 106.63 140.58C106.63 140.66 106.643 140.78 106.67 140.94C106.723 141.127 106.75 141.273 106.75 141.38C106.723 141.647 106.63 141.78 106.47 141.78C106.336 141.78 106.283 141.487 106.31 140.9C106.39 137.94 106.43 136.447 106.43 136.42L106.31 136.38L106.23 136.42C106.203 136.447 106.123 137.14 105.99 138.5C105.936 138.793 105.856 139.233 105.75 139.82C105.696 140.487 105.71 142.113 105.79 144.7C105.896 147.473 106.016 149.047 106.15 149.42L106.23 149.46C106.31 149.46 106.416 148.927 106.55 147.86C106.55 147.727 106.496 147.193 106.39 146.26C106.363 146.047 106.336 145.367 106.31 144.22C106.283 143.047 106.283 142.393 106.31 142.26C106.443 142.047 106.576 142.047 106.71 142.26C106.736 142.34 106.75 142.58 106.75 142.98C106.75 143.193 106.736 143.593 106.71 144.18C106.683 144.66 106.683 145.047 106.71 145.34C106.71 145.473 106.736 145.713 106.79 146.06C106.843 146.407 106.856 146.66 106.83 146.82C106.803 146.98 106.776 147.207 106.75 147.5V147.58L106.83 147.54C106.83 147.993 106.843 148.527 106.87 149.14C106.79 149.247 106.75 149.3 106.75 149.3C106.803 149.327 106.87 149.367 106.95 149.42C106.95 149.473 106.963 149.567 106.99 149.7L107.03 149.78L107.11 149.74L107.15 149.7C107.123 149.327 107.11 148.833 107.11 148.22L107.15 148.18C107.203 148.18 107.27 148.18 107.35 148.18L107.39 148.22C107.39 148.247 107.416 149.087 107.47 150.74C107.47 151.113 107.87 152.513 108.67 154.94C109.043 156.113 109.256 157.127 109.31 157.98C109.31 158.087 109.27 158.26 109.19 158.5C109.136 158.767 109.11 158.967 109.11 159.1C109.136 159.233 109.19 159.46 109.27 159.78C109.35 160.127 109.376 160.393 109.35 160.58C109.35 160.607 109.256 160.86 109.07 161.34C108.67 162.273 108.11 162.727 107.39 162.7C107.336 162.7 107.083 162.593 106.63 162.38C106.416 162.273 106.136 162.02 105.79 161.62C105.603 161.087 105.296 160.287 104.87 159.22C104.55 158.447 104.363 157.193 104.31 155.46C104.31 155.033 104.376 154.647 104.51 154.3C104.643 153.953 104.776 153.607 104.91 153.26C104.936 153.233 104.963 153.087 104.99 152.82C104.963 152.367 104.95 151.7 104.95 150.82C104.95 150.687 104.976 150.5 105.03 150.26C105.083 150.02 105.11 149.82 105.11 149.66C105.083 149.633 105.043 149.273 104.99 148.58C104.91 148.047 104.896 147.7 104.95 147.54C105.056 147.593 105.216 147.607 105.43 147.58L105.47 147.5C105.47 147.473 105.403 146.487 105.27 144.54C105.27 144.433 105.31 144.247 105.39 143.98C105.443 143.74 105.47 143.567 105.47 143.46C105.47 143.353 105.443 143.1 105.39 142.7C105.31 142.3 105.27 141.98 105.27 141.74L105.35 136.26C105.35 135.94 105.323 135.767 105.27 135.74C105.216 135.713 105.163 135.713 105.11 135.74L105.07 135.78C104.99 135.94 104.95 136.247 104.95 136.7C104.95 137.047 104.976 137.593 105.03 138.34C105.083 139.087 105.11 139.607 105.11 139.9C105.11 140.273 105.07 140.527 104.99 140.66C104.936 140.687 104.883 140.687 104.83 140.66C104.723 140.527 104.67 139.82 104.67 138.54C104.67 138.327 104.776 135.287 104.99 129.42C105.016 129.127 105.003 128.393 104.95 127.22C104.87 126.047 104.816 125.393 104.79 125.26L103.67 121.82C103.616 121.66 103.723 121.567 103.99 121.54C104.23 121.513 104.363 121.5 104.39 121.5C104.416 121.393 104.23 121.18 103.83 120.86C103.43 120.513 103.23 120.22 103.23 119.98C103.23 119.5 103.496 119.073 104.03 118.7C104.563 118.327 105.07 118.14 105.55 118.14C105.79 118.14 106.096 118.42 106.47 118.98C106.47 119.007 106.523 119.113 106.63 119.3C106.736 119.487 106.79 119.593 106.79 119.62C106.976 119.753 107.176 120.087 107.39 120.62C107.576 121.047 107.816 121.3 108.11 121.38C108.27 121.433 108.71 121.367 109.43 121.18C110.15 120.967 110.55 120.86 110.63 120.86C111.136 120.913 111.656 121.087 112.19 121.38C112.963 121.78 113.39 122.287 113.47 122.9C113.576 123.46 113.47 124.167 113.15 125.02V126.3L113.71 127.38C114.243 128.02 114.976 128.34 115.91 128.34C116.683 128.34 117.67 128.127 118.87 127.7C119.323 127.54 119.99 127.26 120.87 126.86C121.643 126.3 122.456 125.74 123.31 125.18C123.363 125.233 123.39 125.287 123.39 125.34C123.39 125.527 123.23 125.753 122.91 126.02C122.696 126.207 122.47 126.38 122.23 126.54C122.15 126.673 121.99 126.873 121.75 127.14C120.523 128.127 119.056 129.007 117.35 129.78C116.736 129.967 116.11 130.18 115.47 130.42C115.39 130.5 115.496 130.553 115.79 130.58C116.11 130.58 116.67 130.42 117.47 130.1C117.95 129.887 118.43 129.673 118.91 129.46ZM107.23 147.66L107.31 147.78V147.86L107.19 147.94L107.11 147.9L107.03 147.86L106.99 147.7C107.043 147.62 107.123 147.607 107.23 147.66ZM104.91 147.02C104.75 145.9 104.75 145.18 104.91 144.86L104.99 144.82L105.07 144.86C105.096 144.913 105.136 145.273 105.19 145.94C105.216 146.633 105.203 147.007 105.15 147.06C105.096 147.06 105.03 147.06 104.95 147.06L104.91 147.02ZM107.15 145.86C107.23 145.94 107.256 146.007 107.23 146.06L107.15 146.14L107.07 146.1C106.99 146.02 106.963 145.94 106.99 145.86L107.07 145.82L107.15 145.86ZM105.11 144.26L104.99 144.3C104.696 144.273 104.616 143.847 104.75 143.02L104.83 142.98C104.91 142.953 104.99 142.953 105.07 142.98L105.11 143.02C105.216 143.687 105.216 144.1 105.11 144.26ZM104.99 142.62H104.91L104.75 142.5L104.91 142.38L104.99 142.54V142.62ZM105.03 142.02L104.91 142.18H104.87C104.816 142.073 104.803 141.927 104.83 141.74L104.95 141.82L105.03 142.02ZM107.19 141.82L107.15 141.94L106.99 141.98L106.91 141.94L106.83 141.82L106.91 141.74L107.03 141.66L107.15 141.74L107.19 141.82ZM104.99 141.42L104.91 141.46H104.83L104.75 141.38C104.75 141.327 104.776 141.26 104.83 141.18H104.91L104.99 141.26C105.016 141.313 105.016 141.367 104.99 141.42ZM107.15 141.38L107.07 141.42L106.95 141.38C106.87 141.14 106.91 141.007 107.07 140.98L107.15 141.02C107.23 141.1 107.23 141.22 107.15 141.38ZM119.87 129.22C119.79 129.38 119.643 129.42 119.43 129.34L119.39 129.26V129.22C119.63 128.873 119.79 128.847 119.87 129.14V129.22ZM112.31 130.46C112.123 130.353 111.95 130.233 111.79 130.1C111.39 129.86 111.203 129.74 111.23 129.74L111.11 129.94L110.83 129.5L111.15 129.26C111.203 129.42 111.243 129.567 111.27 129.7C111.403 130.02 111.47 130.193 111.47 130.22L112.31 130.46ZM121.11 128.34C120.763 128.607 120.603 128.74 120.63 128.74L120.55 128.66L120.51 128.5C120.59 128.367 120.696 128.327 120.83 128.38C121.096 128.087 121.376 127.82 121.67 127.58C121.67 127.633 121.483 127.887 121.11 128.34ZM111.95 128.7C111.976 128.7 112.083 128.74 112.27 128.82C112.35 128.847 112.43 128.873 112.51 128.9C112.51 128.847 112.376 128.7 112.11 128.46C111.843 128.193 111.683 128.06 111.63 128.06H111.23L111.39 128.34L111.67 128.5C111.723 128.66 111.816 128.727 111.95 128.7ZM106.55 126.86L106.59 126.78L106.35 126.58C106.27 126.393 106.203 126.3 106.15 126.3L105.99 126.58L106.27 126.78C106.35 126.86 106.443 126.887 106.55 126.86ZM104.79 123.06L104.91 122.54C104.91 122.513 104.91 122.407 104.91 122.22L104.67 122.1V121.94L104.39 121.82C104.336 122.06 104.363 122.22 104.47 122.3L104.79 123.06ZM131.627 119.06C131.627 119.007 131.787 119.407 132.107 120.26C132.427 121.113 132.561 122.033 132.507 123.02C132.401 124.807 132.387 125.74 132.467 125.82C132.574 125.9 132.774 125.94 133.067 125.94C134.027 125.94 134.987 125.78 135.947 125.46C136.614 125.327 136.947 125.327 136.947 125.46C136.627 125.727 136.321 126.007 136.027 126.3C135.574 126.487 134.827 126.687 133.787 126.9C133.201 127.007 132.627 127.113 132.067 127.22C131.721 127.3 131.454 127.607 131.267 128.14L130.027 131.82C129.787 132.487 129.347 133.02 128.707 133.42C128.067 133.82 127.374 134.02 126.627 134.02C126.094 134.02 125.614 133.913 125.187 133.7C125.001 133.62 124.721 133.353 124.347 132.9C123.947 132.447 123.747 132.007 123.747 131.58C123.747 129.873 123.734 128.913 123.707 128.7L123.627 128.66C123.094 129.38 122.441 130.113 121.667 130.86C121.534 130.807 121.467 130.567 121.467 130.14C121.467 129.713 121.494 129.46 121.547 129.38C121.761 129.22 122.054 128.98 122.427 128.66C124.294 126.873 125.361 125.633 125.627 124.94C125.654 124.833 125.667 124.727 125.667 124.62C125.667 124.407 125.494 123.967 125.147 123.3C124.801 122.607 124.627 122.02 124.627 121.54C124.627 120.287 125.187 119.033 126.307 117.78C127.427 116.5 128.601 115.833 129.827 115.78C130.147 115.78 130.441 115.927 130.707 116.22C131.001 116.513 131.281 116.807 131.547 117.1C131.601 117.34 131.614 117.647 131.587 118.02C131.561 118.287 131.547 118.54 131.547 118.78C131.574 118.887 131.601 118.98 131.627 119.06ZM127.467 126.78L127.267 126.86C126.601 127.953 126.267 129.007 126.267 130.02C126.267 130.473 126.361 130.86 126.547 131.18C126.601 131.313 126.707 131.487 126.867 131.7C127.401 131.86 128.067 131.327 128.867 130.1C129.587 129.007 129.974 128.167 130.027 127.58L129.947 127.46C129.361 127.247 128.534 127.02 127.467 126.78ZM123.907 128.02C124.121 127.94 124.294 127.66 124.427 127.18L124.347 127.02L124.187 127.1C123.814 127.527 123.681 127.833 123.787 128.02H123.907ZM128.467 122.78C128.521 122.62 128.627 122.407 128.787 122.14C129.054 121.847 129.574 121.767 130.347 121.9L130.507 121.78V121.62C130.027 120.367 129.161 119.74 127.907 119.74C126.841 119.74 126.307 120.247 126.307 121.26C126.307 121.58 126.347 121.9 126.427 122.22C126.507 122.54 126.587 122.753 126.667 122.86C126.774 122.94 127.027 122.98 127.427 122.98C127.934 122.98 128.281 122.913 128.467 122.78ZM134.712 126.14C134.872 125.66 135.046 125.26 135.232 124.94C135.552 124.433 135.779 124.02 135.912 123.7L136.872 121.94C136.926 121.727 137.059 121.42 137.272 121.02L136.752 120.5C136.592 120.18 136.526 119.847 136.552 119.5L137.032 119.1C137.379 118.993 137.779 118.833 138.232 118.62C138.312 118.46 138.392 118.313 138.472 118.18C138.552 118.02 138.726 117.913 138.992 117.86C139.632 117.86 140.099 117.927 140.392 118.06C140.526 118.113 140.886 118.353 141.472 118.78C141.419 119.047 141.486 119.407 141.672 119.86C141.752 119.913 142.432 120.047 143.712 120.26C144.832 120.447 145.432 120.633 145.512 120.82C146.179 121.407 146.512 121.873 146.512 122.22C146.512 122.327 146.499 122.447 146.472 122.58C146.152 123.087 145.632 124.007 144.912 125.34L143.832 127.38L143.512 128.62C143.646 128.94 143.872 129.047 144.192 128.94C144.912 128.807 145.486 128.567 145.912 128.22L146.672 127.66C146.992 127.393 147.366 126.98 147.792 126.42L148.592 125.3L149.912 123.18C149.939 123.18 149.952 123.22 149.952 123.3C149.952 123.753 149.712 124.433 149.232 125.34L148.792 126.1C148.739 126.34 148.566 126.687 148.272 127.14L147.912 127.78C147.832 127.86 147.672 128.06 147.432 128.38L147.032 128.82L146.392 129.46L144.792 130.7C144.659 130.78 144.352 130.967 143.872 131.26C143.046 131.74 142.406 132.033 141.952 132.14C141.259 132.14 140.726 132.007 140.352 131.74C139.872 131.42 139.526 130.993 139.312 130.46C139.099 129.927 139.099 129.153 139.312 128.14C139.392 128.14 139.512 128.033 139.672 127.82C139.699 127.58 139.752 127.313 139.832 127.02C139.859 126.94 139.939 126.873 140.072 126.82C140.232 126.767 140.339 126.687 140.392 126.58C140.286 126.607 140.206 126.593 140.152 126.54C140.232 126.327 140.312 126.153 140.392 126.02C140.392 125.967 140.806 125.273 141.632 123.94C142.006 123.3 142.232 122.673 142.312 122.06C142.099 121.58 141.619 121.247 140.872 121.06C140.499 120.953 140.112 120.993 139.712 121.18C138.699 121.793 137.872 122.567 137.232 123.5L136.472 124.7L135.952 125.34C135.552 125.847 135.139 126.113 134.712 126.14ZM139.992 127.58C139.779 128.353 139.766 128.767 139.952 128.82C140.059 128.847 140.259 128.567 140.552 127.98C140.792 127.527 140.912 127.233 140.912 127.1C140.912 127.073 140.752 127.02 140.432 126.94C140.272 126.887 140.126 127.1 139.992 127.58ZM140.912 125.1C140.672 125.633 140.659 126.033 140.872 126.3C140.952 126.407 141.019 126.46 141.072 126.46C141.179 126.46 141.272 126.207 141.352 125.7C141.459 125.167 141.552 124.847 141.632 124.74C141.712 124.607 141.752 124.527 141.752 124.5C141.752 124.473 141.739 124.46 141.712 124.46C141.686 124.46 141.606 124.487 141.472 124.54C141.366 124.593 141.299 124.62 141.272 124.62C141.219 124.62 141.206 124.607 141.232 124.58C141.046 124.873 140.939 125.047 140.912 125.1ZM139.432 129.1C139.432 129.207 139.486 129.327 139.592 129.46C139.726 129.593 139.819 129.66 139.872 129.66C139.926 129.66 139.952 129.473 139.952 129.1C139.952 128.833 139.832 128.7 139.592 128.7C139.486 128.7 139.432 128.833 139.432 129.1ZM174.408 132.5C174.382 132.58 174.302 132.673 174.168 132.78C173.848 132.86 173.368 132.98 172.728 133.14C172.062 133.38 171.528 133.54 171.128 133.62C171.022 133.647 170.875 133.687 170.688 133.74C169.995 133.767 169.275 133.833 168.528 133.94V133.98V134.06C168.555 134.087 169.328 134.033 170.848 133.9C171.675 133.82 172.782 133.553 174.168 133.1C175.182 132.753 175.688 132.62 175.688 132.7C174.968 133.047 173.662 133.487 171.768 134.02C171.688 134.02 171.555 134.02 171.368 134.02C171.128 134.1 170.742 134.193 170.208 134.3C169.942 134.247 169.448 134.233 168.728 134.26L168.688 134.34L168.728 134.38L169.008 134.42C169.035 134.447 169.035 134.473 169.008 134.5C169.008 134.527 168.995 134.54 168.968 134.54C168.488 134.54 168.235 134.54 168.208 134.54C168.208 134.46 168.168 134.38 168.088 134.3C168.222 134.3 168.075 134.38 167.648 134.54C167.462 134.593 167.075 134.633 166.488 134.66C165.982 134.687 165.115 134.593 163.888 134.38C162.662 134.167 161.782 133.953 161.248 133.74C160.955 133.633 160.648 133.5 160.328 133.34V133.3L160.368 133.22C160.822 133.433 161.382 133.62 162.048 133.78L162.088 133.74V133.66C161.715 133.367 161.142 133.1 160.368 132.86L160.168 132.9C159.982 132.767 159.742 132.607 159.448 132.42C159.368 132.393 159.235 132.353 159.048 132.3C158.995 132.22 158.875 132.127 158.688 132.02C158.502 131.913 158.288 131.793 158.048 131.66C157.808 131.553 157.675 131.407 157.648 131.22C157.488 131.167 157.248 131.073 156.928 130.94C156.822 130.78 156.635 130.567 156.368 130.3C156.315 130.3 156.222 130.3 156.088 130.3C156.008 130.193 155.875 130.047 155.688 129.86C154.888 129.033 154.115 127.993 153.368 126.74C152.622 125.46 152.128 124.287 151.888 123.22C151.835 122.873 151.728 122.433 151.568 121.9C151.542 121.9 151.168 121.847 150.448 121.74C149.942 121.687 149.448 121.98 148.968 122.62C148.462 123.26 148.195 123.58 148.168 123.58H147.248C147.062 123.58 146.862 123.167 146.648 122.34C146.568 122.18 146.462 121.927 146.328 121.58C146.275 121.553 146.222 121.513 146.168 121.46C146.088 121.38 146.048 121.287 146.048 121.18C146.048 121.1 146.062 120.967 146.088 120.78C146.088 120.62 146.088 120.487 146.088 120.38C146.088 120.3 146.062 120.167 146.008 119.98C145.955 119.793 145.942 119.647 145.968 119.54C145.968 119.38 146.008 119.113 146.088 118.74C146.142 118.367 146.168 118.073 146.168 117.86C146.142 117.727 146.062 117.527 145.928 117.26C145.768 116.993 145.715 116.78 145.768 116.62C145.848 116.167 145.915 115.94 145.968 115.94C145.995 115.94 146.035 115.953 146.088 115.98C146.755 116.54 147.542 116.913 148.448 117.1C149.328 117.287 150.222 117.46 151.128 117.62C151.235 117.647 151.302 117.593 151.328 117.46L151.608 112.82C151.608 112.633 151.582 112.38 151.528 112.06C151.475 111.74 151.448 111.527 151.448 111.42C151.475 111.047 151.488 110.473 151.488 109.7C151.462 109.593 151.422 109.327 151.368 108.9C151.315 108.553 151.288 108.273 151.288 108.06C151.288 107.98 151.302 107.9 151.328 107.82L151.408 107.78C151.382 107.78 151.502 107.833 151.768 107.94C151.902 107.94 152.075 107.967 152.288 108.02C152.422 108.153 152.635 108.393 152.928 108.74C152.982 108.873 153.048 109.087 153.128 109.38C153.368 110.047 153.675 110.753 154.048 111.5C154.182 111.687 154.328 111.967 154.488 112.34C154.728 113.113 154.782 113.62 154.648 113.86C154.568 114.073 154.435 114.367 154.248 114.74C154.142 114.82 153.995 114.967 153.808 115.18C153.648 115.393 153.568 115.807 153.568 116.42C153.568 117.06 153.648 117.46 153.808 117.62C153.835 117.673 154.008 117.7 154.328 117.7C154.328 117.7 154.368 117.78 154.448 117.94C154.502 117.993 154.608 118.02 154.768 118.02L154.808 117.98V117.9L154.608 117.78V117.74V117.66L154.648 117.62C154.808 117.647 154.995 117.673 155.208 117.7L155.248 117.78V117.98V118.02H155.328L170.848 118.5C170.982 118.5 171.302 118.58 171.808 118.74C171.808 118.793 171.835 118.86 171.888 118.94C171.968 118.967 172.035 118.967 172.088 118.94C172.088 118.887 172.102 118.82 172.128 118.74C172.182 118.633 172.235 118.62 172.288 118.7C172.315 118.727 172.328 118.807 172.328 118.94C172.488 118.993 172.608 119.02 172.688 119.02L173.688 119.1C173.715 119.073 173.715 119.033 173.688 118.98C173.368 118.953 173.008 118.913 172.608 118.86C172.582 118.833 172.582 118.793 172.608 118.74C172.662 118.687 173.035 118.687 173.728 118.74C174.422 118.793 174.862 118.86 175.048 118.94V119.02V119.18C175.182 119.207 175.382 119.233 175.648 119.26L175.688 119.3C175.688 119.407 175.675 119.46 175.648 119.46C175.622 119.487 174.275 119.407 171.608 119.22C171.475 119.273 171.288 119.313 171.048 119.34C170.728 119.287 170.235 119.22 169.568 119.14C169.222 119.14 168.688 119.113 167.968 119.06C167.862 119.087 167.702 119.113 167.488 119.14C166.582 119.087 166.115 119.06 166.088 119.06L166.048 119.14L166.088 119.22C166.115 119.22 166.862 119.247 168.328 119.3C168.355 119.3 168.502 119.407 168.768 119.62V119.66C168.768 119.713 168.755 119.74 168.728 119.74C163.582 119.607 160.955 119.58 160.848 119.66C160.742 119.847 160.715 119.953 160.768 119.98C160.928 120.033 161.395 120.02 162.168 119.94C162.888 119.86 163.302 119.873 163.408 119.98C163.408 120.033 163.395 120.1 163.368 120.18C162.995 120.153 162.502 120.207 161.888 120.34C161.888 120.393 161.875 120.487 161.848 120.62C161.822 120.647 161.768 120.66 161.688 120.66H161.608C161.582 120.633 161.542 120.593 161.488 120.54C161.542 120.433 161.568 120.367 161.568 120.34C161.515 120.26 161.395 120.207 161.208 120.18C161.128 120.207 161.088 120.287 161.088 120.42C161.115 120.393 161.168 120.393 161.248 120.42L161.288 120.46L161.248 120.54C160.848 120.567 160.328 120.593 159.688 120.62C159.048 120.647 158.475 120.687 157.968 120.74C157.862 120.767 157.622 120.82 157.248 120.9C156.902 120.98 156.635 121.02 156.448 121.02C155.595 121.02 155.315 121.007 155.608 120.98C155.208 121.007 155.048 121.153 155.128 121.42L155.168 121.46C155.435 121.433 155.742 121.433 156.088 121.46L156.128 121.54V121.62L156.048 121.66L155.248 121.7C155.062 121.62 154.755 121.567 154.328 121.54C154.168 121.593 154.235 121.993 154.528 122.74L155.008 123.94C155.488 125.193 155.942 126.18 156.368 126.9C156.662 127.38 157.262 128.207 158.168 129.38C158.968 130.26 159.862 131.007 160.848 131.62C161.355 131.94 162.115 132.327 163.128 132.78C163.982 133.02 165.342 133.14 167.208 133.14C168.035 133.14 169.888 132.887 172.768 132.38C173.142 132.327 173.555 132.207 174.008 132.02C174.462 131.86 174.928 131.753 175.408 131.7C175.568 131.727 175.742 131.74 175.928 131.74C175.635 131.98 175.422 132.14 175.288 132.22C175.022 132.38 174.728 132.473 174.408 132.5ZM166.608 134.46V134.38V134.34C166.128 134.34 165.422 134.26 164.488 134.1L164.408 134.14V134.22L164.488 134.26C165.742 134.5 166.448 134.567 166.608 134.46ZM164.128 134.26L164.168 134.22V134.14L164.128 134.06H164.048H163.968V134.18L164.008 134.26H164.128ZM167.808 134.14L167.848 134.06H167.808C167.755 134.007 167.702 133.98 167.648 133.98C167.488 133.927 167.382 133.927 167.328 133.98C167.275 134.033 167.302 134.087 167.408 134.14C167.488 134.193 167.622 134.193 167.808 134.14ZM163.728 134.14L163.768 134.1V134.06C163.582 134.007 163.368 133.953 163.128 133.9L163.088 133.94V134.02C163.355 134.18 163.568 134.22 163.728 134.14ZM165.448 134.1L165.528 134.06V133.94C165.422 133.86 165.288 133.847 165.128 133.9C164.942 133.927 164.902 133.967 165.008 134.02C165.115 134.073 165.262 134.1 165.448 134.1ZM160.088 133.14L160.008 133.18C159.955 133.153 159.928 133.113 159.928 133.06L160.008 133.02L160.088 133.06V133.14ZM159.448 132.82L159.408 132.86L159.288 132.9L159.208 132.82V132.74L159.328 132.66L159.368 132.7C159.422 132.727 159.448 132.767 159.448 132.82ZM158.368 132.06L158.328 132.1C158.302 132.153 158.262 132.18 158.208 132.18C158.182 132.153 158.062 132.047 157.848 131.86C158.115 131.887 158.288 131.953 158.368 132.06ZM156.888 121.58C156.782 121.66 156.635 121.673 156.448 121.62C156.422 121.593 156.408 121.567 156.408 121.54C156.408 121.513 156.475 121.487 156.608 121.46C156.742 121.433 156.835 121.433 156.888 121.46V121.5V121.58ZM163.488 120.5C163.488 120.473 163.595 120.46 163.808 120.46C164.022 120.46 164.142 120.473 164.168 120.5V120.58V120.66C164.142 120.687 164.022 120.7 163.808 120.7C163.595 120.7 163.488 120.687 163.488 120.66C163.462 120.607 163.462 120.553 163.488 120.5ZM165.368 120.5C165.395 120.5 165.515 120.487 165.728 120.46C165.942 120.433 166.062 120.433 166.088 120.46L166.128 120.54V120.62C166.102 120.62 165.968 120.633 165.728 120.66C165.515 120.66 165.395 120.66 165.368 120.66C165.342 120.607 165.342 120.553 165.368 120.5ZM162.888 120.58C162.835 120.633 162.782 120.66 162.728 120.66L162.648 120.62V120.54L162.728 120.46H162.848L162.888 120.5V120.58ZM162.208 120.66H162.168L162.088 120.58C162.088 120.473 162.142 120.407 162.248 120.38C162.275 120.407 162.315 120.433 162.368 120.46C162.368 120.54 162.315 120.607 162.208 120.66ZM168.608 120.22C168.582 120.247 168.128 120.273 167.248 120.3C167.435 120.3 167.022 120.3 166.008 120.3C165.715 120.3 165.582 120.207 165.608 120.02C165.635 119.993 166.008 119.993 166.728 120.02C167.315 120.02 167.942 120.033 168.608 120.06L168.648 120.14L168.608 120.22ZM165.408 119.98C165.462 120.14 165.195 120.22 164.608 120.22C164.048 120.247 163.728 120.22 163.648 120.14L163.608 120.06L163.648 119.98C163.675 119.953 163.968 119.927 164.528 119.9C165.088 119.9 165.382 119.927 165.408 119.98ZM160.248 120.34L160.288 120.3L160.248 120.18L160.168 120.14H160.088L160.048 120.22V120.3L160.128 120.34H160.248ZM151.088 120.3H151.128C151.208 120.273 151.248 120.233 151.248 120.18C151.222 120.073 151.182 120.007 151.128 119.98C151.075 120.007 151.035 120.06 151.008 120.14C151.008 120.193 151.035 120.247 151.088 120.3ZM170.368 120.1V120.22L170.288 120.26H170.248L170.168 120.22V120.14V120.06H170.288L170.368 120.1ZM169.568 120.14V120.22C169.515 120.273 169.448 120.313 169.368 120.34C169.315 120.313 169.262 120.273 169.208 120.22L169.248 120.14C169.302 120.06 169.355 120.02 169.408 120.02C169.462 120.02 169.515 120.06 169.568 120.14ZM170.688 119.86L170.648 119.78L170.688 119.74L170.728 119.7H172.568C172.755 119.7 172.848 119.753 172.848 119.86C172.848 119.993 172.755 120.047 172.568 120.02C171.955 119.993 171.328 119.94 170.688 119.86ZM170.368 119.86C170.368 119.86 170.342 119.86 170.288 119.86L169.248 119.78C169.222 119.727 169.222 119.687 169.248 119.66C169.622 119.66 169.995 119.673 170.368 119.7L170.408 119.78L170.368 119.86ZM169.368 119.38L169.448 119.42V119.5C169.395 119.553 169.342 119.58 169.288 119.58L169.208 119.5V119.42C169.262 119.393 169.315 119.38 169.368 119.38ZM165.688 119.34C165.662 119.393 165.662 119.433 165.688 119.46C165.688 119.487 166.408 119.513 167.848 119.54C167.902 119.513 167.902 119.5 167.848 119.5L165.728 119.34H165.688ZM165.208 119.54C165.288 119.513 165.342 119.46 165.368 119.38L165.328 119.3L165.288 119.26C165.182 119.287 165.128 119.34 165.128 119.42V119.5L165.208 119.54ZM174.568 119.26L174.648 119.22L174.688 119.14C174.662 119.06 174.608 119.007 174.528 118.98H174.488L174.408 119.02V119.14L174.448 119.22L174.568 119.26ZM170.848 118.9C170.875 118.927 170.928 118.953 171.008 118.98L171.088 118.94V118.86L171.048 118.82L170.968 118.74L170.888 118.82L170.848 118.9ZM170.288 118.74C170.288 118.74 170.022 118.74 169.488 118.74C169.435 118.74 169.408 118.753 169.408 118.78C169.408 118.833 169.435 118.86 169.488 118.86H170.248C170.355 118.86 170.368 118.82 170.288 118.74Z"
    fill="currentColor"
  />
  <path
    d="M16.7443 146.43C17.7366 146.275 18.1087 146.136 17.8606 146.012C17.6125 145.888 16.9923 145.764 16 145.64L17.4885 145.5L26.4195 145.826H72.5632C79.0134 145.826 88.8127 145.872 101.961 145.965C115.11 146.058 125.033 146.105 131.731 146.105C134.956 146.105 138.926 146.089 143.639 146.058L145.5 146.291H142.151C142.647 146.384 143.515 146.461 144.756 146.523L145.5 146.616L135.825 146.756L134.336 147.081L136.569 147.407C133.096 147.531 130.243 147.593 128.01 147.593H119.451L114.986 147.779C112.753 147.779 109.652 147.857 105.682 148.012L106.427 148.151C108.163 148.058 109.776 148.012 111.264 148.012C112.505 148.012 114.241 148.074 116.474 148.198C115.234 148.229 114.614 148.306 114.614 148.43C113.869 148.461 112.257 148.477 109.776 148.477L98.2399 148.57L93.7744 148.709L85.2155 148.616L81.4943 148.709L55.4454 148.802L42.7931 149.081C40.5603 149.112 38.8238 149.252 37.5833 149.5C30.637 148.973 26.9157 148.647 26.4195 148.523L23.0704 147.035C22.8223 146.911 20.7136 146.709 16.7443 146.43Z"
    fill="currentColor"
  />
</svg>
